<svg xmlns="http://www.w3.org/2000/svg" viewBox="0 0 360.16 145.46"><defs><style>.cls-1{font-size:50px;font-family:Inter-ExtraLightItalicBETA, Inter;font-style:italic;}.cls-2{letter-spacing:-0.02em;}</style></defs><title>Asset 51</title><g id="Layer_2" data-name="Layer 2"><g id="Layer_1-2" data-name="Layer 1"><path d="M160.58,78.25a10.81,10.81,0,0,0-3.7-1.49c-.93,0-1.6-.84-2.54-1.18-.74-.26-.9-1.08-1.41-1.28l-1.32-.49c-.75-1.15-2.25-1-3.5-2.75-.23-.31-.59-.42-.83-.65s-.24-.73-.53-.92c-.44-.28-.47-.87-1-1.1-.32-.15-.22-.68-.28-.87s-.18.12-.26,0,0-.31,0-.29c.59.15.19-.29.52-.74.51-.7-.21-.22,3.81,3.47s14.48,8.2,14.87,6.09c.31-1.68.35-.16.82-.32s-.19.27.35.5c.69.3-.25.38.21.68.75.5.18.58,1.09,1.22.4.27.51.56.34,1.16-.1.35-.44.33-.73.36a36.69,36.69,0,0,1-6-1.38Z"/><path d="M154.13,70.76c.05-.06.87-3.89.9-4.55,0-1,3.55.71,6.39,1.58,1.72.53-5.42-.73-5.64.4,0,.17-.84,1.88-.93,2s-.52.41-.33.81c0,0-.19.3-.25.29s0-.13,0-.2S154.17,70.9,154.13,70.76Zm1.44-4.31c0,.54,1.46,1.46,1.1.89-.07-.11-.39-.08-.22-.3s.16-.22-.6-.74c-.18-.12-.22,0-.28.15Z"/><path d="M124.47,66.17c0-.7,1-1,1,.07C125.48,66.51,124.47,66.79,124.47,66.17Z"/><path d="M128.93,67.87c-.3.06-.23-.44-.3-.69-.23-.77.66-1.07.55-.76s.17,1.36-.25,1.45Z"/><path d="M157.26,69.21c-.21.34.66.65.32.88-.16.1-1.17-1.15-.71-1.39,0,.29.49.19.39.51Z"/><path d="M151,51.93c-.08,0-.12-.17-.25-.12s-.12,0-.1-.09c.42-2-.59-3.13.76-8l1-4.35c.12-.63-.64.29-1.28-.15-.28-.19-3.18.82-4.76,3.18-.24.36.19,1.15-.17,1.53s.51.39.09,1c-.29.47,0,.79-.19,1.08-.36.68-1-.95-1-1.71,0-.22,0-.28-.24-.19-.5.24-.47.18-.41.45s-.28.4-.59.09-.94-.24-1.94-.61c-.65-.24-.33.08-.72,0s-.64-.4-1-.14a61.83,61.83,0,0,0-9.07-1.15c-.27-.21-.66.12-.89-.22a.14.14,0,0,0-.09,0c-.24.31-.65-.05-.9.22,0,0-.08,0-.12,0-.53-.29-8.78-.92-9-.57a.15.15,0,0,1-.23,0,2.1,2.1,0,0,0-1.16-.2c-.41.29-.27.06-3.7,0-1.66,0-1.71.31-2.64,0-.19.33-.5.19-.77.18s-.59.17-.9.1a1.87,1.87,0,0,0-1.18.24c-.71-.54-3.69.26-5.5.23-.76,0-.54,1.07-.85,1.61-.53,1-.47,1.43-.86,1.48a2.75,2.75,0,0,1-1.17-1.25c0-.12-3.16-1.49-3.47-1.24s-12,2.34-12,2.31c-.12-.2-.54-.15-.57,0s.11.09.17.14c.49.34-.16.27-.23.15s-.14-.06-.22,0c-.55.25,4.35,1.35,5.3,2a1.68,1.68,0,0,0,1,.38.65.65,0,0,1,.39.13,9.66,9.66,0,0,0,2,1.06c.74.35,1.38.86,2.08,1.28s.27,0,2.46-.09a36.72,36.72,0,0,1,5.47.37c.43.14-.09,1.27-1.19,1a6.21,6.21,0,0,0-2.15,0c-.66.09-.54-.23-.91-.12s-.52.3-.74-.06a3.56,3.56,0,0,1-1-.25c-.31-.08-.58.22-.91.14s.28.55.66.64c1.06.23,3.84,3.22,4.45,3.89,5.66,6.29,2.35,5.16,1.72,3.39-.35-.18-.44-.55-.63-.85s-.29-.19-.43-.31c-3.39-2.92-2.71-3.56-3.46-2.13-.1.19,0,.27.17.18.74-.49,0,.89.61,1.11a.16.16,0,0,1,0,.29c-.59.28.26,2.21-.8,2.17s2.81,3,2.31,3.53c-.34.37-.89-.8-1.27-.89-.13-.58-.87-.64-1-1.2s-1,1.91-1.1,2.68c0,.29-.33.56-.54.81-.06.08-.16.1-.1.23.25.47,0,.84-.24,1.21-.68,1.11-1.08,2.69-1.53,3-.72.41-.23,1-.4,1.23l-1,2c-.29.7-.71.49-.61,1,0,.2-.22.42,0,.64,0,0,0,.14,0,.14.38.07.43.61.68.62s.23-.18.3,0-.16.1-.23.18,0,0,.64,1c.12.17.07.36-.16.15-1-1-.49-.95-1.19-1.35,0,0-.22,0-.18.15.12.47-.27.88-.17,1.35,0,.11-.4.45-.43.08-.09-1.27.43-3.27-.11-2.59-.69.87-5-.34,0-.49.51,0,.62-.23,1.15-2,0,0,.74-1.54,1.08-2.36.05-.11-.06-.22-.15-.08-.74,1.24-1,.45-1.84.88-.13.07-.28.16-.43.07s-.3.29-.54.12c-.61-.42-.51,0-1-.34-.74-.54-.88.13-1.56-.65-.21-.25,0-.15.08-.17L92.63,69c3,.33,2.29-.58,4.22-4.07.3-.56-.15-.69.2-1,.55-.4.37-2,.89-2.1.22,0,.42-1,.25-1.18-1.14-1.27-7.25-.48-7.22.54,0,.49-.49-.1-.69.57a5.32,5.32,0,0,0-1.46,1.95c-.19.51-1.19,4.59-.88,4.85-.4.69.35,1.28,0,2.26A.13.13,0,0,0,88,71c.34.34.37.5.19.86s-.64.11-.38-.13a.14.14,0,0,0,0-.14c-.46-.54-2.45-9,4.34-12.6,1.12-.59,4.37-.39,5,.18,1.62,1.47,1.25-.52,1.23-2.42,0-.64.07-.14.47-.72.11-.16.08-.2-.1-.13-.77.32-.35,0-.46-.17s-.2.17-.21,0-.37-.77.3-.59c.31.09.14-.1.12-.41s-.41.12-.34-.21a.62.62,0,0,0-.51-.69c-.31-.07,0-.35-.25-.39s0,.38-.28.35a.57.57,0,0,0-.25.06c-.64.24-.17-.17-.67-.45-.89-.51-3.24-4-11.88-5.09-.21,0-.21-.27-.42-.38A19,19,0,0,0,82,47.44c-.27-.1-.35.35-.62,0-.13-.15-.35,0-.49-.22-.27-.37-.49.21-.67,0s-.35.31-.73.06c-.13-.09.43-1.22-.14-1.45.21-.37.2-.3.19-1.14,0-1.87.25-1.23,2.19-1.65,1.66-.36,1.48-.49,1.57-.26,0,0,.08,0,.08,0,.1-.34.52-.2.7-.49s.8-.57,1.15-.92c.18-.18.5,0,.76-.16a1.09,1.09,0,0,1,.84-.23S87,41,87,40.94c-.1-.58,1.06,0,1.35-.74a13.08,13.08,0,0,0,1.44-.74,1.3,1.3,0,0,1,.83-.75c.19,0,.26,0,.25-.21a7.63,7.63,0,0,1,2.37-1.28.28.28,0,0,0,.17-.11,1.9,1.9,0,0,1,1.11-.74c.23-.06.46-.42,1-.53s1-.52,1.49-.63c.16-.32.52-.4.75-.63.41-.4,1.37-.41,2.29-2s.65-1.81,1-1.61c2.11,1.25,2.56-.66,3.73-.72,0,0,7.79-6,8.35-6.11s2-1.82,2.14-1.95c.69-.78-.11-1-.06-1.36.2-1.29-.43-3.44-.18-4.63a2,2,0,0,0,0-.65c.32-.41.14-.93.27-1.39A24.85,24.85,0,0,1,116.57,11c.07-1.33,3.49-4.24,4-4s.72-.45.86-.48a2.47,2.47,0,0,0,1.42-.92c1-.32,2.82-3,3.39-2.65.91.61,6.77-3,7.91-2.12,0,0-.07.08-.11.08-.26,0-.35.28-.52.42-2.65,2.2-4.51,1.77-5.9,2.79-.22.16-.33-.14-.72-.31s-.06.36-.61.35a.38.38,0,0,0-.35.25,6.37,6.37,0,0,1-1.3,1.54c-1.59,1.68-4.86,2.75-6.85,6.41a4.15,4.15,0,0,1-.42.81c-.06.08-.15.17-.06.27s.15-.12.53-.06c.17,0,.2.37,0,.42-.82.23.76,3.73.57,3.61s-.52.29-.72.1c-.42-.4.28-.77,0-.91s-.43-.43-.18-.78c.13-.18-.63-.42-.16-.67.12-.06.12-.25-.06-.31s-.43-.52-.66-.18c-.11.17-.82,3.8-.82,3.8.26.18.19.37.15.64s.7,2.64.2,2.52-.27.34-.45.47,0,.17.07.22c.32.23.36.69.71.88a9.44,9.44,0,0,0,2.88.59,16,16,0,0,0,7,.07c3,0,8.17-6.13,8.16-6.26.53-.23.64-.88,1.14-1.14,0-.29.25-.36.48-.43.05,0,.11,0,.1-.09,0-.27.29-.3.37-.46.15-.33.76-.26.68-.48-.14-.4,2.05-1.83,2.64-2.07,0,0,.12,0,.14,0a2.44,2.44,0,0,1,1.44-.87c.82-.29.3-1.36-.22-1.15s-.1,0-1-.43c-.54-.23-.17-.77-.66-.58s-2.2-.69-3.19-.88c-2.24-.42-5.8.07-5.54-.41s1.22-.68,1.57-.7c.54,0,.61-.33.91-.2.53.23,1.15-.24,1.81-.09,1.26.29-.73-.43,2.83.88.81-.22,1.29.44,1.9.72a5.06,5.06,0,0,1,1.24.66.32.32,0,0,0,.26.15,7.29,7.29,0,0,1,3,1.43c1.68.21-6,3-5.77,4.85.05.3-1.46,1.25-1.83,1.78-.11.16.1.41-.09.51-2,1.15-1,.93-2.73,2.55-.21.21-.34.49-.63.63a6.28,6.28,0,0,0-1.38,1.5c-.54,0-.77.54-1.22.7-.13.05-.38.15-.38.2,0,.47-.76.22-.91.78-.08.28-.53.46-.52.2a.07.07,0,0,0-.13-.06c0,.59-1.37,0-2,.89-.13.19-.31-.37-.65-.16a18.94,18.94,0,0,1-6.67-.05c-.26-.06-.48-.28-.77-.21-.63-.6-2.82-.76-2.79.1,0,.12-.43.23-.58.12-1.11-.85-19.13,14.12-21.67,13.62-.08,0-.2.12-.28.2-.37.38-.54.08-.79.4s-.52,0-.67.23a1,1,0,0,1-.46.36c-4.29,1.63.29,1.08.68,1.16s4.81-1.26,7-.62c.17.05.4.27.57,0a0,0,0,0,1,0,0c.45.42.85-.06,1.27-.06.11,0,.09-.23.25-.23a.59.59,0,0,0,.34-.14c1.94-1.47,27-.9,28.17-.41a5.63,5.63,0,0,0,2-.91c.15-.14.4-.37.67-.12s.39-1.22.8-.79c1.12,1.18-2.37,2,2.35,2.38,1,.08,5,1,5.56,1.13,3,.51,3.59,2.4,4.2.32.52-1.8,2.95-4.61,6.26-4.3a1.13,1.13,0,0,0,1.35-.65C155.18,32,162,27,163,26.4c8.69-5.7,10.9.77,11.9.78.27,0,1.52.93,1.09,1.19-.65.4-.23.85-.07.92,1,.4,2.21.11,3.66.44,0,0,.1.05.14,0,1.28-.46,4.4,1.54,3.1,2.16a3.87,3.87,0,0,1-.85-.54,5,5,0,0,0-1.35-.07c-.74.12-.54-.26-.9-.19a11.43,11.43,0,0,1-2.27-.16c-.16-.06-.6.21-.68.14-.3-.23-.67,0-1-.17s-.27.34-.5.13c-.41-.38-2.09.18-2.23.39,0,.05-.05.14-.14.1-1.12-.56-4.82,3.76-4.76,4.15-.19.13-.26.38-.48.5a.72.72,0,0,0-.4.51c-.13.83-.67.66-.85,1.32-.1.37-.53.55-.49,1-1.07.65-4.12,11.41-3.15,11.31,0,0-.24,2.57-.28,2.65s.27.43.11.5c-.36.16.29.68-.22.56-2.12-.5-1.51-11.52,4.41-19.38,3.54-4.69,5-4.54,8.34-5.19a.43.43,0,0,0,.19-.75c-.6-.5-1.2-.38-1.28-.78s-2.44-2-2.8-1.76c-.12.07-.37-.19-.6-.09a.12.12,0,0,1-.1,0c-.22-.29-.58-.23-.86-.35s-.39-.24-.58,0c0,.06-.13.05-.19,0-1.92-.79-4.8,1.81-7,3.59-.14.12-.35.05-.49.23s-.21.36-.47.35c0,0-.11.34-2.24,2.2-.3.26-.68.44-.84.84-.05.12-.13.06-.21.07-.42,0-.65.55-.44.69s.16.27,0,.28c-.83.09-2.66,2.93-2.49,3.87s-.83.47-.82,1.4c0,.14,0,.2.1.31a.42.42,0,0,1-.1.6c-1,.39-.62,2.86-1.09,3.15-.06,0-.14.16-.12.21.12.29-.11.5-.17.74a4.81,4.81,0,0,0-.19,1.3c0,.46-1,2.88-.66,3,.12,0-.2,1.34-.25,1.46s-.16.34.17.23,0,.18,0,.22c.43.29.13.6,0,.89-.15.47-.16.47-.64.53H151Z"/><path d="M34.09,66.58s-.05.07-.06.07c-.46-.18-.58.32-.89.45a2,2,0,0,0-.86.59,8.67,8.67,0,0,1-1.21,1,1.35,1.35,0,0,0-1,.8,3.24,3.24,0,0,0-1.14.63c-.64.8-2.06,1.41-2,1.72a.52.52,0,0,1-.52.67,1.66,1.66,0,0,0-1.22.68c-.5.52-1.84,1-1.56,1.28,0,0,0,0,0,0s-.45,0-.46.39-.3.29-.53.36-.33.48-.38.67-.36,0-.41.19c-.17.73-.74.33-.61.93.06.27-.65.06-.71.53,0,.3-.34.35-.45.57s-.17.09-.27.08c-.38,0,.17.48-.41.53-1.11.1-.75,1.26-2,1.82a16.13,16.13,0,0,0-4,4.21c-.09.19-.15.44-.41.49-.63.12-4.18,5.37-4.3,5.47.14.55-1.23,1.34-1.6,2.58a.55.55,0,0,1-.18.29c-1,.9-3.59,5.88-3.59,5.88-.33,0-1.13,1.49-1.13,1.64s.15.63-.26.79c.11.44-.31.67-.44,1a1.3,1.3,0,0,1-.39.69c-.21.16.23.31-.1.43a3.25,3.25,0,0,0-.56.76c0,.25-.28.25-.37.41s0,.25-.13.21a16.9,16.9,0,0,1,.22-2c.17-.9-.1-7.18.2-7.23.54-.08.75-.64,1.21-.83,0-.18.45-.86.66-.83a.23.23,0,0,0,.26-.29c-.25-.58.69-.36.63-1.11a.13.13,0,0,1,.05-.11c.49-.38.48-1.08.79-1s1.36-2.55,1.82-2.58c0,0,.1-.07.1-.11,0-.35.3-.51.44-.76s.2-.48.49-.58.15-.42.33-.52c1.3-.67,1-1.61,1.71-1.89.07,0,.17-.12.16-.18,0-.53.86-.84.82-1.38,0-.36.76-.44,1.18-1.15s.37-1.15.87-1.13a3.88,3.88,0,0,1,1.09-1c.2-.12.05-.42.31-.46.06-.36.51-.37.62-.71s.51-.44.63-.78c0-.08.1-.11.18-.16.85-.53.76-1.25,1.44-1.38.16,0,.41-.15.32-.43a19.54,19.54,0,0,1,1.67-1.43c.16-.09-.24-.32.08-.29s2-1.89,2.45-2.15c.25-.15.52-.16.43-.44s.37-.06.7-.81A15.89,15.89,0,0,0,23,69.06c-.25-.6,1.24.81,2,.22.18-.14.54,0,.56-.42,0,0,13.44-9.77,19.93-11.82.42-.13.46-.6.8-.79a.21.21,0,0,0,.11-.21c0-.41.11-.29,1.35-2,.09-.14.24-.46.33,0,.5-.06-.23.57.4.52.12,0,1.5-.23,1.53-.42.06-.41.79-.05,1-.61a.18.18,0,0,1,.17-.08c.48.16.72-.35,1.12-.42.57-.11.19-.44.52-.4.48.06.74-.33,1.07-.55.57-.39.35,0,.92-.45s.46-.25,1.17.62c.12.15.23,0,.3,0s-.07.22,0,.33c.25.7,1.91,1.14-.28,2-.2.09-.59,0-.57.39-.28.05-.54.29-.83.15s-.88.62-1,.53c-.4-.29-4.48,2.15-5.09,2.21-.32,0-.12.47-.52.69-.17.1.09.56-.28.7-.07,0-.27.06-.22.1s0,.33.29.37.37.24.17.45c-.47.49.38,1,.4,1.3a1.19,1.19,0,0,0,.48.62c.27.23.15.65-.3.46-.25-.11-.9-.63-1.48-.53-.34.06,0-.31-.19-.36-1.36-.32-2.93-1.22-3.86-.61-1.25.82-1.54.39-1.68.85s-.85.2-1.06.74c-.64,0-2.25,1.53-3,1.72-.33.08-.32.63-.77.52-.29.24-1,.59-1.06.78-.12.48-.87-.16-.66.55.08.29-.62-.16-.67.29Z"/><path d="M176.19,59.37a11.26,11.26,0,0,0,2.7,3c.28.21,2.86,1.54,3.66,1.29,1.28-.4,3.38-.94,3.29-5,0-.19.14-.15.25-.18.44-.09.1.58.5.24A16.47,16.47,0,0,0,188,57.3c.14-.24,1.22-.43,1.36-1.47,0-.29,2.05-3.59,2.08-4.46a30.48,30.48,0,0,0-.37-5.89c-.19-.75.66-1,0-1.27-1.3-.52.46-1.11.53-.52.09.79.29.55.27.93-.82-.09.49.29-.31.4-.06,0-.15,0-.13.09s.64-.14.64.29.17.84.12,1.29a.68.68,0,0,0,.26.62c.44.32-.2.32.2,1a3.68,3.68,0,0,1,.21,2.39,1.16,1.16,0,0,1-.16.83c0,.07-.1.17-.08.23.32,1-1.7,4.21-1.7,4.21.51.71-1.21.38-.71,1.68.23.62-.06,1.39.13,1.8,0,.06.09.17,0,.24-.25.31,0,.7-.2,2.61a11.68,11.68,0,0,0-.3,1.9c0,.48-1.39,3.6-1.27,4.42,0,.11-.1.16-.16.24-1,1.12-.81,1.79-1.37,2,0,0-.11.08-.13,0-.18-.49-.21,0-.5.16-1.71,1.1-2.2.69-2.49,1.25,0,0-4.54,1.53-4.83,1.82-.82,0-.76.87-1.31.51s-1.37.18-2.13-.39c-.51-.39-.92-.16-1-.64s-1.09-.56-1.29-.88c-.08-.13-1.13.78-1.24.9-1,1.06-1,.37-1.43,1.07s-.54.15-.92.47a.94.94,0,0,1-.82.32c-.06,0-1.13.85-1.38.75-.54-.24-1.7.41-1.73.41s-2.48,0-3.4,0c-.59,0-.16-.24-.53-.22-.83,0-1.41-.77-2.64-1.21-.41-.15-.28-.47-.42-.56l-.45-.33c.14-.69-.55-.43-.8-.68s-.25.24-.47.27c-.52,0-.9.45-1.4.56s-.37.7-.87.34a.5.5,0,0,0-.57-.1c-.69.32-4-2.08-3.36-2.85.88-1.09.28.34,2.61,1.2,1.51.56,3.79-.16,3.44-1.55-.94-3.81,2.35,3.88,6.35,3.71a3.73,3.73,0,0,0,2.49-.39,11.63,11.63,0,0,0,2.58-.88,31.56,31.56,0,0,0,3.86-2.25c1.08-1,.74-1.3,1.18-.88,3.95,3.69,5.2,1.36,6.75,1,.22,0,6-2,6.61-3.52,3.22-8.12,2.6-11.63,2.08-10.34-.23.56-.41.07-.73.65-.54,1-1.46.89-1.4,2.16a6.16,6.16,0,0,1-.62,2.56c-1.1,2.11-2.78,1.55-4,2-.76.25-.78-.55-1.32,0-1.38,1.47-1.71,2-2.35,1.9-.13,0-1.7,2.09-4.79,0-.75-.52-.7-.67-1-.43s.5.22,0,.45c-.89.44-.55-2.81-1.4-2.28a.15.15,0,0,1-.21-.09c0-.12.41-.12.35-.34a.25.25,0,0,0-.27-.18c-.3,0-.15-.21.06-.3s.21-.16.17-.23-.83.33-.78-.08c.1-.75-.44-.38-.5-.7s.31-1.14.67-.76c1.71,1.79,1.7,2,2.68,3,3.21,3.23,7.19-1.08,5.88-1.41-.74-.19-.71,0-1-.38,0,0-2.08-1.87-2.3-2s.58-.21.14-.7c-.19-.22.34-.72-.29-.34a.15.15,0,0,1-.14,0c0-.37-.39-.21-.47-.42s.6,0,.67-.66c0-.15.11.08.2.08v0Z"/><path d="M53.9,34c0-1.7.76-5.71.06-5.23-.31.21-.61.45-1,.17a2.76,2.76,0,0,1-1.68-.17c-.27-.08-.48-.33-.8-.28-.08,0-.1,0-.07-.09.18-.41-1.22-1.38-1.2-1.51.1-.65-.91-.75-.76-1.25.07-.22-.44-.34-.43-.46s.46-.18,0-.37c-.06,0-.14.08-.17,0s.85-.69,1.33.29c.63,1.29,3,2.41,3.65,2.55s.91,1,1.56.62c.47-.26.42.05,2,.19,2.31.2,8.21-2.68,6.79-12.3-.1-.67.62,0,.74,0s.07.06.06.06c-.3.36.36.48.21.82s.11.64,0,1c.25.51.07,1.09.33,1.61,1,2.05-1.67,6.31-1.7,6.46-.15.76-1.74,1.45-1.53,1.86s-.23,0-.3.14c-.28.44-.86.25-1.19.57a4.29,4.29,0,0,1-2.44,1c-.55.49-.68-.23-1.6.69-.22.21-.32-.09-.4.12-.19.46.12.44,0,.71-.43,1,0,.51,0,1,0,1,1,.45.77.82s-1.23,1-.87,1.29a.14.14,0,0,1,0,.22c-.2.14.06.23,0,.33S55,35,55,35.08c.08.67-.26,1-.34,1.61-.06.41.18.9.14,1.17A5.36,5.36,0,0,0,54.58,40c0,.07,0,.17,0,.19s-.13.06-.46,1c-.06.17.14.23.14.33s-.27.05-.29.23-.09.41-.19.48c-.56.4,0,.82-.14.83s-.48,1.5-.51,1.64c-.08.34-1,1.27-1,1.53s1.5,0,1.62,0c1-.12,1.06-.66,1.39-1.18s3.07-5.19,3.33-6c.56-1.63,5.62-4.6,7.9-3.59a3.84,3.84,0,0,0,1.19.25c3.06.33,6.5,3.92,6.64,4.23s-.55,0-.14.34c.06.06-.18.32-.33.36s-.19,0-.43-.24c-.4-.34,0-.39.17-.56s.07-.21-.07-.14-.4.14-.42.08-.35,0-.29-.26c-.48-.08-1.55-1.55-2.7-1.6s-1-.49-1.28-.65c-.64-.32-.67.15-1.22-.11s-.9-.17-1.33-.34a.34.34,0,0,0-.46.16c-.21.36-.61-.34-.88-.19-.45.24-1.73.12-1.83.63-.06.31-.49,0-.64.06-.36.22-1.5.4-1.63.82s-.49.38-.77.67,0,.51-.35.56c-.08,0-.86.87-.8.93.36.36-1.31,1.84-1.43,2.94-.35.38-1,2.14-2.38,2.74-.44.2-.45.27-.06.59.12.09,1.71,1.6,1,1.6-.24,0-.19.25-.51.15s-.2-.29-.43-.33c-.57-.09.07-.7-.81-.41-1.9.63-2.37.12-2.27,1A2.68,2.68,0,0,0,51.2,50c-.08.32-.36.51-.54,1.1-.07.26-.11.54-.44.62a.16.16,0,0,0-.1.11c0,.35-1,.93-1.4,1.45-.21.3-.44.08-.35-.18a53.9,53.9,0,0,0,2.43-5.55c.79-2.69,1.34-3.09,1-4.81-.05-.28.12-.63-.25-.83-.06,0,.14-.18.11-.34s1,.36,1.12-1c.06-1,.3-1.22.3-1.22s.68-4.65.69-4.71c0-.25.19-.48.09-.67Z"/><path d="M178.59,43.16c.24-.65-2.6.26-3.06.58-.2.14-.32.43-.64.35,0,0,0,0-.07.06-.42.56-2.68,2-2.36,2.74,0,.06,0,.12-.09.17-.88.82-2,6.32-2.12,6.45s-.38.56-.23.67c.35.25.2.36-.17,1.66-.26.89.6,1.5-.12,2.15-.09.08,0,.14.06.18.37.19.58.45.4.88.27.26-.4.46-.46.71,0,.08-.09,0-.14,0s.08-.48-.48-.12.7-.65,0-1.39c-.21-.21,0-.38-.15-.69a5.31,5.31,0,0,1-.21-1.4c-.07-.21-.28-.4-.3-.57C168.2,52.23,171,43.89,175.11,42c2.91-1.35,2.89,2,4.63-.06,2.11-2.48,3.92-4.85,7.15-4.12.54.12.21.11,2.18,1.94.17.15,0,.11-.44.46-.1.08-.18-.05-.25-.11-.3-.25-.74-.2-1-.48-.07-.08-.15,0-.23,0a1.66,1.66,0,0,1-1,0c-1-.28-4.36,1.88-4.32,2.51s-.3.19-1.1,1.06a20.06,20.06,0,0,0-3.83,6.54c-.15.1-.12.44-.32.37s0-.34-.09-.52c-.48-1.46,1.9-5.85,2.13-6.43Z"/><path d="M150.94,51.93c.2.13.5.25.34.5s1.08,1.42,1.31,1.58c1.66,1.11.93.52,2,1,.56.24.61-.36.88,0,.11.12.18,0,.22-.11a10.56,10.56,0,0,1,2.8-4.33,3,3,0,0,1,1.78-1.24c.14,0,1.75-.84.74.15a3.19,3.19,0,0,0-.75,1.07.44.44,0,0,1-.19.23c-3,1.07-5.36,11.3-4.25,12.45-.07.29.11.65-.2.88s.55.09.41.87c0,.22.15.42.06.65-.6,1.57-2.93-5.16-1-9.23a.28.28,0,0,0-.4-.39c-.36.35-.71-.22-1.07-.11s-.39,0-.45-.25-.85.16-1-.37c0-.11-.14-.09-.2,0-.31.31-.48-.16-.59-.58-.36.17-1.08-.89-1.43-.16-.22.47-.66.88-.51,1.49a.52.52,0,0,1-.06.34c-.41.74.3.61-.14,1s.12.79,0,1.25c-.07.24.41.8.09.94s.24.3,0,.39c-.71.27-1.53-5,.51-7,.21-.2.17-.55.43-.68s.52-.08.69-.31Z"/><path d="M78.6,50.28c-.22-.12-.83.29-.61-.08s-2.36-.45-3-.26c-1.1.31-4.42,1.33-5.1,2.29-.11-.08-.14,0-.18.09-.45.63-.89.17-.75.51.07.15.4,0,0,.14a1,1,0,0,0-.67.41c-.47.76-.58,0-1.28.55-.9.71-1.46.5-1.5.92s-.58-.3-1-.08c-2.13,1.15-6.24-1.32-6.08-1.81,0-.08-.07-.09-.13-.12-.78-.39,0-1.07-.56-.88a.07.07,0,0,1-.08-.12c.31-.27-.05-.32-.15-.35C56,51,56.88,50,57.16,50.17c.11.07.32,0,.28.3-.08.44,3.47,4,6.83,3a13,13,0,0,0,3.14-1.27,28.21,28.21,0,0,1,3-2c.76-.22,1.37-1.57,6.63-1.55,1.61,0,.32-1.78,1.59-1.37.18.06.24.12.08.27s.48.5.64.43.47.23.23.26-.73,0-.39.25-.63.27-.07.55c.35.17-.16.17-.07.29s.23.18.27.33c-.28.08-.25.34-.33.55s-.25,0-.41,0Z"/><path d="M32.3,38.32c.2-.21.3-.08.12-.35a2,2,0,0,0-.56-.67c-.35-.24.17-2,1.2-.56,1.58,2.26,6.65,6,11.78,4,1-.4.26-1,4.09-1.47,1-.11.53-1,2.21,1.5.3.44-.23.3-.33.48-.38.66-2.06-1.18-3.16-.38-.43.32-1,.07-1.85.94a16.79,16.79,0,0,1-3.51,1.27,2.84,2.84,0,0,0-.92-.05c-2.26.2-6.63-2.21-6.91-2.92,0-.08-.11-.18-.18-.1-.34.44-.07-.29-.9-.83-.52-.33-.34-.7-1-.8,0,0,0,0-.06-.08Z"/><path d="M128.67,57.77c.87,0,.92-1.14,1.43-.43s1.2.7,1.11,1.14c-.33,1.54-2.83-.2-5.94,1.32a8,8,0,0,1-1.55.5c-.59-.43-.58.59-1.64.53s-1.56.71-2.26.79c-.22,0-2.94.47-3,.52-.47.4-.41-.13-2,0a3.21,3.21,0,0,1-1.91-.55c0-.09-.14-.08-.22,0a9.11,9.11,0,0,1-3.82-1.63s0-.07-.07-.07c-.74-.06-1-1.1-1.62-1.41a1.18,1.18,0,0,1-.62-.92c0-.1,0-.2-.12-.15-.33.17-.3-.19-.43-.29s-.12-.33,0-.45-.12-.24.07-.33.36,0,.51.16,2.29,3.68,6.1,4.3c7.62,1.25,11-2.77,15.91-3Z"/><path d="M44.67,30.87c.07-.27.35-.08.2.09s-.18.3,0,.29c.54,0-.34,3.17-.18,4.12,0,.23-.59.26-.12.58.12.08,4,2.29,3.79,2.59a2.8,2.8,0,0,1-.54-.24c-.44-.28-.27.39-.86,0-.12-.09-2.16-1.27-3-1a29.34,29.34,0,0,0-3.15,1.12c-.43.38-.5,0-1.74.44a.19.19,0,0,1-.19,0c.41-.49,6.4-2.63,4.57-2.58-.79,0-1.5-.61-2.1-.69s-.21-.51-.88-.8c-1-.41-1.6-.67-2.12-.33s-1.58.09-2.07.53c-.2.18-2,.55-1.65.11.51-.68,4.62-1.71,3-2.05a8.34,8.34,0,0,1-1.39-.54c-1-.41-.19-1-.78-1a1.77,1.77,0,0,1-.78-.22c-.17-.14-.5.44-.56-.13-.41.09-.94-.89-2.11-.47-.17.06-.37.3-.57,0-.13.1-.35.15-.28.37s-.06.56.25.72c0,0,0,.06,0,.08a1.75,1.75,0,0,1-.58-.18c-.42-.17,0-.14-.2-.52a1,1,0,0,1-.05-.77c.05-.13.14-.24.09-.39.18-.05.19.17.33.19,3.4.43,3.61-.73,4.64.2,5.35,4.87,3.27,1.26,4.06-2,.94-3.89,0,2.6.1,3.77.1,1-.79.86,1.68,2.22,4.29,2.38,2,1.38,3.25-3.45Z"/><path d="M104.17,51.1c-.61-2.48,9.78-11.69,22.69,1.53.12.13-.19.33,0,.38.7.18.44.73.42,1-.07.75-2-2.36-2.79-1.83-1.87,1.22-1.8,1.33-2.11,1.17,0,0-.06,0-.09,0s-.2.28-.31.1,2.7-1.27,2.51-2.13c0-.23-.22-.07-.3-.12a2.23,2.23,0,0,1-.56-.5c-.17-.24-.5-.18-.63-.39a.84.84,0,0,0-.59-.44c-.28,0-.06-.33-.28-.35-.06,0-1.17-.56-1.18-.57s-.32.11-.49,0h0c.57-.66-9.53-5.08-15.31,1.29-.13.15-.32.24-.49.1a.17.17,0,0,0-.3.09c0,.27-.25.41-.24.66Z"/><path d="M102.84,65.66c.44.23.07.44.32.64.45.37,0,.4,0,.72.12.87-.36,1.77-.12,2.18.13.22-.11.28-.55,1.85-1,3.53-6.91,10.65-7,10.74-.27.18.13.44-.17.57s-.11.28-.17.41a2.54,2.54,0,0,1-.48.94c-.47.4.13.45-.38,1-.1.12,0,.39-.28.36s-.63.06-.84-.29c-.66-1.11-.53-.37-.81-1.16,0-.12,0-.35-.28-.29,0,0-.5-1-.88-1.24s.14-.51-.29-1a.21.21,0,0,1,.28-.29c.78.39.67,1.25,1.58,1.58,1.81.66-.91,1.52,5.18-5.55a17.59,17.59,0,0,0,4.11-7.33c.68-4.26-.52-4.53.79-3.81Z"/><path d="M29.82,21c-.24-.55,2.68,1.64,4,1.9,5.15,1.06,7-.43,11.36,2.26,2.2,1.35,3.7,3.67,2.86,3.38-.26-.09.11-.46-.23-.29s-.59.54-.59.15c-.63.17-.3-.59-.93-.75a1.26,1.26,0,0,1-.51-.35,2.09,2.09,0,0,0-1.16-.57c-.08,0-.2,0-.23-.08-.13-.35-.25-.26-1.22-.75-.72-.36-.79.12-.9-.3s-2.5-.55-2.5-.55c-.05-.4-.36-.21-.56-.23a2.86,2.86,0,0,0-1.2-.08c-.2.06-.34-.16-.58-.12a2.32,2.32,0,0,1-1.31-.06,2.4,2.4,0,0,1-1.62-.3c-.32-.12-.62.3-.71-.15,0-.14-.18-.14-.3-.17-1.07-.22-.39-.39-2.51-1.47-.15-.07-.44-.05-.29-.37-.18-.08-.14-.34-.39-.41a.67.67,0,0,1-.45-.69Z"/><path d="M105.56,62.14c-.55,0-.15-.45-.07-.61.21-.41.25-.43.58-.14,2,1.73.47.58,2.8.85,2.73.32,6.49,1.45,8.24,3.77,2,2.67,1.26,1.41,1,1.9-.43-.25-.63.23-.79-.08a5.34,5.34,0,0,0-2-1.82c0-.35-.21-.37-.43-.44-.45-.16-1-.89-1.85-.87-.47,0-.63-.53-1-.37-.1-.41-2-.47-2.69-.77-.12-.06-1.07-.36-1.12.15,0,.22-.49,0-.58-.08s.29-.14.28-.23-.31-.15-.31-.12c-.1.4-.75,0-.94,1.1,0,0-.66,2-1.7,6.29-.2.8.26.42.05,1a1.28,1.28,0,0,0,.14,1.08c.15.27-.54.41-.62-.06-1-5.69,2.9-10.55,1-10.6Z"/><path d="M185.32,47.5c-.81.24-1.72-.84-2.86-.54-.6.17-2.72,1.36-2.16,2.26a.17.17,0,0,1,0,.23,3.16,3.16,0,0,0-.57,1.78c-.18,1.47-.49,1.67-.27,2,.07.08.05,0-.21.87-.17.53.05.62.35.11.12-.2.06-.87.45-1.28.14-.14,2-2.87,3.88-2.2.7.26.82.54,1.52,1.31.31.34-.23.18-.34.7-.19-.2.13-.58-.26-.58-.76,0-.49-.21-1-.21a2.62,2.62,0,0,0-2.39,1c-1.15.84-1.77,4.62-1.91,2.4-.07-1-1.4,1-1.21.08.63-3.11-.38-7.4,3.44-9.61,1.61-.93,4.28,1.51,3.51,1.75Z"/><path d="M176.2,59.39c.09-1,0-1.15-.22-1.19-.52-.09.29-.33-.09-.78-.1-.12.27-.63,1.71-.26,2.26.58,2.3.16,3.06.68,2.1,1.45,3.32-1.14,4.41-1.63a.54.54,0,0,0,.3-.45c0-.74,1.22-2.51.14-2.9,0,0-.1-.06-.1-.1,0-.32,1.15.25,1.06-.36s.28-3.53-.4-3.6c-.13,0-.37.07-.31-.18s.09-.45.39-.25.2-.35.73-.42c.36-.05,0,.32,0,.44.06.3.72.37.2.75s.46.14.25.54.39,1.15.15,1.88c-.06.16.15.3,0,.48s.1.2.21.08.19.15.32.1c.05.19-.15.14-.51.32a1.45,1.45,0,0,0-.34,1.41c.07.12,0,.18-.1.26a1.39,1.39,0,0,0-.46.93c0,.28-.78,1-.8,1.13-.07.45-.36.21-.86.7s-.43,1.48-1.24,1.92c-.24.14-.55.2-.64.53s-1.05.19-1.44,0-.56-.39-.94-.24c0,0-.52-.26-.71-.25s-.38,0-.49-.2a.23.23,0,0,0-.18-.09c-1,0-1.36-.54-1.87,0a3.48,3.48,0,0,1-1.29.71v0Z"/><path d="M54.2,19.87c-.09-.79.33-1.25.46-2.13.88-6.39-.1-3.31.84-4.6.29-.4.15-.65.4-.57S55,13.78,58.52,12c.41-.2.73,0,.19.32-1.47,1-3.59,2.53-3.27,4.28.1.58-2,2.27,1.6.37,1-.53,1.32-.22,2.39-.77.63-.33,1-.29,1-.14s-.32.05-.63.2,0,.25-.28.38c-.66.31-.45.53-1.36.54-.43,0-.17.11-.7.42a2.14,2.14,0,0,0-.8.6c-.12.16-.42.1-.47.23-.16.49-1.27.17-1.23,1.28a16.28,16.28,0,0,1-.24,2.59c-.09.14-.27.32-.14.45.75.73.72-.13,3.3-1,.12,0,2.44-.77,2.47-.53s-5.6,2.25-5.17,3c.22.39-.08.6-.24.89-.32.56.47.68.16,1.39-.09.18-.15,1.91-.47.33-.7-3.43-.14-4-.46-7Z"/><path d="M47.61,16.85c-.17-.5,1-3.33,1-3.45.18-.36,1.6-2.4,1.6-2.4,0-.15.87-1.43,1.21-1.39,0,0,.06,0,.08,0,.4-1.23,7.48-6.7,7.18-6.06-.56,1.2-1.25,1.07-1.41,1.68-.07.26-.34.28-.5.37a3,3,0,0,0-.88.81,3.58,3.58,0,0,1-.86.69,27.27,27.27,0,0,0-3.81,4.19c-.16.76-.85,1.17-1.21,1.8a7.45,7.45,0,0,1-.39.65c-.18.24.28,1.15,0,.67s-.65.76-.55,1.14c0,.15.18.42-.21.38a5.42,5.42,0,0,0-.23,1.59c0,.3-.31-.05-.22.24.18.64-.57,1,0,1.21a.24.24,0,0,1,.05.28c-.35.4-.18.9-.27,1.35,0,.1,0,.23-.08.27-.58.24-.12.25.06.33s.26,1,.19,1.14-.3.16-.26-.08-.31-.33-.17-.58a9.72,9.72,0,0,1-.31-4.79Z"/><path d="M67.05,48.8s-.07,0-.08,0c-.13-.3-.46-.37-.66-.58s-.11-.46-.85-1-.83-1-1.74-1.42c-.61-.28-1.66.45-2.4.41a.31.31,0,0,0-.19.06,1.08,1.08,0,0,1-1.13.21c-.24-.06-1,0-1-.07s.86-.44,1-.47c.73-.13,3.3-.87,3.78-1.63.06-.1.3-.31.42-.21s-.09.2-.42.56c-.11.12-.08.28.13.24.66-.14.44-.53,1-.61,4.81-.71,2.05-.6,3.59-.4.19,0,.37-.16.65-.06,1.54.54,1.53-.07,3.59.9a8.06,8.06,0,0,1,3,2.1c-.07.49-1.32-.87-2-.84,0,0-.13,0-.15,0-.51-.6-3.27-.92-4.54-1.54-.43-.21.24.76.87,1.24.1.09.39-.14.29.08-.23.57.68.54.73,1.15,0,.07.17.1.06.18S70.8,47,70.77,47s-.13-.26-.33-.17-.67-.64-1-.78,0-1-.33-.59c-.07.09-.13,0-.21,0-1.65-1.24-2.77.24-4.66-.29-.64-.17.88.66,2.59,2.58a6.87,6.87,0,0,0,.45.65c.18.16,0,.45-.21.45Z"/><path d="M104.16,51.11c.4-.42,5.29,1.11,5.93,1.12s1.27.91,1.44.61a.43.43,0,0,1,.53-.18c.35-.5.83-.18,1.26-.2,4.06-.17,3.46,1,4.78,2.27.13.13,0,.48.05.51s.23-.16.28-.11,0,.09-.05.13c-.69.71-.79-1-1.22-.92-.56-1.09-5.87-1.47-4.93-.09.56.81.8.67.61,1-.39.72-.12,0-1.16-.7-.44-.31-.07-.79-.38-.65-.63.29-.71-.95-1.88-.79l-3.64-1c-.59-.3-.73.37-.89,0-.37-.76-1-.35-.67-.7.13-.14,0-.25,0-.35Z"/><path d="M119,73.48c-.06-5.54-.61-5,.1-5.1s0,.84.59,1.08a.17.17,0,0,1,0,.14c-.16.43.19.81.13,1.23s.57.1.1.41.15,1.17.08,3.92a8.22,8.22,0,0,0,.1,1.84,2.6,2.6,0,0,1-.14.64A25.74,25.74,0,0,0,120,81c.27.25.09.48,0,.71-1.09,2-.92-7.38-.93-8.25Z"/><path d="M129,9.24c.19.79-.22.52.12,1,0,.06.19.1.17.18-.22.56.31,1.07.1,1.63a15.26,15.26,0,0,1,0,3.82,17.71,17.71,0,0,1-1.7,4.88c-.08.19-.28.1-.39.17s.23.25.08.38-.07.39-.37.41-.4.29-.53.12.33-.34.34-.54,1-3.1,1.08-3.22c.42-1.23.43-2.53.73-3.78a26.86,26.86,0,0,0-.24-5.15c-.21-.9.84-.59.62.09Z"/><path d="M164.18,58.86c-.42.24,0-.16-.37-.28A3.54,3.54,0,0,1,162,57c0-.17-.41-.15-.4-.34a.82.82,0,0,1,.14-.47c.31-.34-.07-1.66.79-.59.21.26,2.69,2.46,4.21,2.05a.56.56,0,0,1,.44.07c.67.34.56-.36.88-.05.17.17.11.61-.25.57a1.13,1.13,0,0,0-.8.29c-.52.42-2.73.24-2.85.31Z"/><path d="M58.6,45.82c-.07.51-.55.33,0,.64a9.48,9.48,0,0,1,1.65,1.1c4.54,3.93,2.94,3.93,2.42,3.16a1.46,1.46,0,0,0-.71-.6,1,1,0,0,0-.85-.65c.12-.49-.54-.3-.58-.56-.06-.44-1.3-.94-1.69-1.06-1-.3-.7-.78-1.23-.6-1,.34-2.78-.35-1.53-.52a7.86,7.86,0,0,0,2.52-.9Z"/><path d="M110.78,72.92c-.28.57,1.91.56.8.76-.74.13,0,.46-.17.66-.57.61-.64.42-1.17,1.34a12.47,12.47,0,0,1-1.16,1.56c.21.56-.38.61-.53.81s-.82,1.78,2-5.07c.25-.61.89-.27.48-.66-.88-.83,3.15,1.26,5.52,1.19,0,0,.17,0,.15.09s-.11,0-.17,0c-1.7.39-5.74-.72-5.74-.72Z"/><path d="M49,30.34c-.06-.42-.33-1.23.07-1,.24.12.4-.16.46,0s.22.27.08.41.27.22.06.43,0,.3.21.36c.55.15-.32,4.82,0,5.25s-.37,1,.1,1.57c.24.32-.53.72-.62.06-.49-3.66,0-4.06-.38-7.06Z"/><path d="M149,51.39a4,4,0,0,1-2.62-1.65c-.63-.82-1.23-1.47-.55-2.29,0-.07.11-.09.14,0,1.05,2.74,6.74,3.78,3,3.94Z"/><path d="M143.1,4.5c-.06-.36-.19-.81.14-.93.52-.18.57.53.8.52.05,0,0,.08,0,.12-.25.35-.14.78-.19,1.17-.12.88-.87,1.6-.94,2-.14.85-.35.46-.49,1.08s-.83.46-.73.17c.85-2.4.63-3,1.25-3.78a.93.93,0,0,0,.15-.37Z"/><path d="M122.81,54.13c4.31,1.16,3.68,1.89,2.55,1.55l-1.93-.5c-.5-.06-.62.75-.4.9s.14.53-.36.23c-.17-.1.08-.27-.06-.36s-.34.24-.41,0c-.25-.71-.73-.65-.61-1.16.07-.32.59-.06.67-.37S122.66,54.27,122.81,54.13Z"/><path d="M109.15,68.61c.16-1.28-.28-.81,3.93-.46,8,.65-.37.92-3,.48a2.48,2.48,0,0,0-.94,0Z"/><path d="M92.89,64.62c-.23-.12-.49,0-.73-.15a2.06,2.06,0,0,0-1-.38c-.32,0,0-.64,1.72-.18.72.19,3.1.16,3.65.4s-.07.56-.19.52-1.11,1.07-3.48-.21Z"/><path d="M151,64c.52.1-.18.24.15.46.85.59.52,1.56.58,2.93.06,1.17.08,1-.16,1.34-.36.52.53.39.6.67s-.15.33-.24.48c-.68,1.24-.48-.4-1.4-5.58C150.46,64.21,150.33,63.92,151,64Z"/><path d="M29.55,23.4c-.08-.44.15-2.22.42-1.53A24.6,24.6,0,0,1,30,25.24a.94.94,0,0,1,.33,1.05c-.21,1.34.5,1.4.33,2.31-.12.64.26.9-.13.82s-.43-.44-.45-.71c-.08-1.05-.33-2.08-.35-3.14,0-.71-.24-1.4-.21-2.17Z"/><path d="M120,53.37c.72-.15,1.16.31,1.6.76.17.16,0,.27-.08.39s-.14,0-.25,0a1.43,1.43,0,0,0-.69-.1c-.56,0-.55-.07-1.05-.28s-.82-.06-1.18-.33c-.16-.12-.36,0-.52.08s-.19,0-.12-.13c.29-.38-.34-.29-.35-.49C117.3,52.59,119.51,53.45,120,53.37Z"/><path d="M109.14,68.6c-.06.09-.11.22-.06.29.21.3,0,.62,0,.94a.39.39,0,0,1-.22.51c-.1.49-.56.79-.67,1.28a.64.64,0,0,1-.34.48c-.12.06-3.1,4.9,0-1.34.24-.46.62-2,1.22-2.15Z"/><path d="M58.62,45.83c0-.09,1.19-2.16,1.78-3.25.32-.59,1-2.26,1-2.24s-.92,5.53-2.81,5.48Z"/><path d="M175.89,55.85c.46-3.14,2.72-3.28,1.8-1.73-.2.33-.92,1.85-1.27,1.85s-.23.84-.53-.12Z"/><path d="M120.88,22.7c-.64-.11-.33-.77-.67-.5-.06,0-.8-.42-1-.49A15.27,15.27,0,0,1,118,20.34c-.1-.23.28,0,.39-.48s.15-.33,1.21.92S121.78,22.52,120.88,22.7Z"/><path d="M141.33,5.51a.65.65,0,0,1-.75.07c-.41-.16-.9,0-1.26-.32,0,0-.16-.07-.17-.1,0-.45-.79-.49-.83-.77s-.22-.57-.12-.88c0-.12.13-.1.19,0,1,1.22,3.63,1.54,3.35,2-.1.18-.27-.11-.41,0Z"/><path d="M67.31,39.05c-.12.13-.1.35-.26.47a1.06,1.06,0,0,0-.39.69c-.16,1-2.58,5.1-2,3,.16-.64,2.38-4.94,2.68-4.18Z"/><path d="M114.75,48.24c-1.16,3.15-3,3.72-2.94,3.16,0-.31.49-.24.48-.62,0-.12,2.19-2.79,2.46-2.54Z"/><path d="M120.49,49c.22.59-4,4.92-3.32,3.34A20.56,20.56,0,0,1,120.51,49Z"/><path d="M57.28,8.7c-.44.65-.25,2.06-.84,2.72-.25.28-.22,1-.4.91-.72-.2.91-4,1.09-4.19C57.32,8.41,57.33,8.63,57.28,8.7Z"/><path d="M53.34,24c-.37.18-.42-.54-1.24-1-.52-.29-.61.22-1.09-.79-.31-.68-.63-.22-.61-.7s-.66-.18-.66-.38c0-.73,4.49,2.75,3.6,2.86Z"/><path d="M136.09.32c2.78-.41.1,1-.46.94-.2,0-.91.25-.78.12s-.14-.4-.07-.62,0-.17.09-.17C135.29.57,135.64.2,136.09.32Z"/><path d="M149,63.75c-.12.14,0,.16.08.23a.8.8,0,0,1,.18.74c-.09.21.2.38,0,.61a.77.77,0,0,1-.65.34c-.26,0-.15-.33-.24-.56s-.1-.7.32-.88c.15-.07.18-.25-.35-.25s-.12-.27-.6-.58c.16-.14.91-.18.59.19-.17.2,0,.21.12.14C148.76,63.54,149,63.29,149,63.75Z"/><path d="M36.29,27.1c-.31.78.17.47,0,1-.43,1.17,0,1.82-.45,1.95-.15,0-.28.09-.25-.15C36.32,23.29,36.87,25.58,36.29,27.1Z"/><path d="M51.39,16.32c.17-.27,2.34,1.8,2.26,2C53.31,19.26,51.23,16.55,51.39,16.32Z"/><path d="M69.16,43.56c-.12,0-.44,0-.31-.25,0-.05,2.16-2.09,2.37-2.2.6-.32-.46.85-1.32,2A1,1,0,0,1,69.16,43.56Z"/><path d="M95.6,71.72c.26-.28.16-.6.34-.42.58.6.33.73.74.93.21.1,1.19,1,1,1.18s-2-1.62-2.09-1.69Z"/><path d="M75.28,41.54a.63.63,0,0,1-1,.11c-.43-.52-.43-.11-.41-.54,0-.22.43-.18.61-.08.56.32,0-1.06.84.51Z"/><path d="M98,67.13c.36-.56,1.18,1.24,1.81,1.43.17,0-.11.36-.18.24s-.52-.18-.64-.48a1.13,1.13,0,0,0-.58-.54c-.3-.16-.16-.51-.41-.65Z"/><path d="M136.09,5.21a.07.07,0,0,0,0,.12.62.62,0,0,1,.21,1c-.07.12,0,.66-.24.67s-.07-.33-.29-1.33c0-.12,0-.5.31-.41Z"/><path d="M138.22.09c.6-.33,1.29.38.64.33-.83,0-1.21.74-1.28.27s.08-.6.64-.6Z"/><path d="M136.09,5.21c-.06-.08-.54-1.42-.56-1.48-.07-.22.05-.19.46-.41a2.23,2.23,0,0,1,.07,1.37s0,.11.05.12c.28.05.11.16,0,.26s0,.09,0,.14Z"/><path d="M141.32,1.71c0-.56-.49-.14-.93-.53-.19-.17.07-.36-.09-.52-.43-.41,1.65.69,1.35,1.18-.1.16-.33,0-.33-.13Z"/><path d="M127.94,7.26c.08-.39.09-.74.31-.6s0,.11-.06.17c-.08.39.91,1.24.41,1.34S128,7.73,127.94,7.26Z"/><path d="M169.84,61.28c-.24-.08-.37.19-.45,0s.33-1.58.71-.33c.08.25,0,.31-.26.31Z"/><path d="M60.26,7.64c.49-.16.31.71.09.77s-.4-.23-.42-.54S60.08,7.62,60.26,7.64Z"/><path d="M59.13,3.46c0-.53,0-.54.08-.55.35,0,.09,3-.06,1.06a4.34,4.34,0,0,1,0-.51Z"/><path d="M156.43,66.93c0,.11.06.34-.25.29s-.36,0-.32-.15-.12-.51.25-.49C156.24,66.59,156.52,66.62,156.43,66.93Z"/><path d="M104.94,74.3c-.2-.06-.08-.28-.15-.42-.19-.36.63-.16.64.07A1.54,1.54,0,0,1,104.94,74.3Z"/><path d="M95.45,71.32a1.08,1.08,0,0,1-.36-.45c0-.37.65-.12.66.13S95.55,71.32,95.45,71.32Z"/><path d="M122.23,23.23c-.12-.09-1-.48-.85-.65s.71.39,1,.46C122.39,23.06,122.4,23.16,122.23,23.23Z"/><path d="M105,55.15c-.3,0,.06-.41,0-.63s.72,0,.49.23A4.19,4.19,0,0,1,105,55.15Z"/><path d="M155.55,66.31c-.6.08-.09-.56,0-.57s.38.34.35.45S155.66,66.22,155.55,66.31Z"/><path d="M31.11,34.09c.22-.42.15-.32.34-.24s.05.3.05.44S30.91,34.47,31.11,34.09Z"/><path d="M139.59.26c.69.14.45.62.2.56s-.41-.38-.39-.48S139.53.31,139.59.26Z"/><path d="M105.89,55.16c-.11.76-.86.76-.3-.06,0-.06,0-.2.14-.17S105.87,55.06,105.89,55.16Z"/><text class="cls-1" transform="translate(24.45 126.82)">Fl<tspan class="cls-2" x="40.43" y="0">ow</tspan><tspan x="107.71" y="0">er Shop</tspan></text></g></g></svg>