<svg xmlns="http://www.w3.org/2000/svg" viewBox="0 0 55.46 55.46"><defs><style>.cls-1{fill:#2f6045;}.cls-2{fill:#fff;}</style></defs><title>Asset 6@1x</title><g id="Layer_2" data-name="Layer 2"><g id="Layer_1-2" data-name="Layer 1"><rect class="cls-1" width="55.46" height="55.46" rx="9.48" ry="9.48"/><path class="cls-2" d="M36.56,49.73H18.9A14.23,14.23,0,0,1,4.68,35.51V19.95A14.23,14.23,0,0,1,18.9,5.73H36.56A14.23,14.23,0,0,1,50.77,19.95V35.51A14.23,14.23,0,0,1,36.56,49.73ZM18.9,8.89A11.07,11.07,0,0,0,7.84,19.95V35.51A11.07,11.07,0,0,0,18.9,46.57H36.56A11.07,11.07,0,0,0,47.61,35.51V19.95A11.07,11.07,0,0,0,36.56,8.89Z"/><path class="cls-2" d="M27.73,40.38A12.65,12.65,0,1,1,40.38,27.73,12.67,12.67,0,0,1,27.73,40.38Zm0-22.15a9.5,9.5,0,1,0,9.49,9.5A9.51,9.51,0,0,0,27.73,18.23Z"/><circle class="cls-2" cx="40.19" cy="15.46" r="2.63"/></g></g></svg>