<svg xmlns="http://www.w3.org/2000/svg" viewBox="0 0 124.86 72.29"><defs><style>.cls-1{fill:#fff;}</style></defs><title>Asset 2@1x</title><g id="Layer_2" data-name="Layer 2"><g id="Layer_1-2" data-name="Layer 1"><path class="cls-1" d="M29.92,23.81a8.45,8.45,0,0,0-1.38-1.05c-2.29-1.11-4.65-2.09-6.9-3.28-.61-.32-.93-1.19-1.38-1.81.71-.3,1.45-.92,2.11-.84,4,.51,8,1.17,12,1.79.33.05.65.14,1.07.23-1.44-2.08-1.38-2.35.61-3-1.71-1-3.45-2-5-3.13a11.54,11.54,0,0,1-1.92-2.48c1-.27,2.08-.92,3-.73,3.85.8,7.65,1.83,11.45,2.84,1.13.3,2.15,1.09,3.28-.1.32-.34,1.09-.26,1.83-.41-.73-.67-1.44-1.23-2-1.88A19.36,19.36,0,0,1,44.21,7c-1-1.59-.27-2.79,1.58-2.75a9.26,9.26,0,0,1,3.4.6c2.93,1.25,5.8,2.62,8.64,4.07.9.46,1.59.9,2.68.45a7.08,7.08,0,0,1,2.45-.05,16.39,16.39,0,0,1-1.84-2.93c-.33-.89-.62-2.31-.16-2.86a3.55,3.55,0,0,1,2.9-.88,17.52,17.52,0,0,1,5.06,1.74c2,1.06,3.79,2.46,5.67,3.71l1.52,1c-.32-1.15-.54-1.83-.7-2.51C74.6,3.06,76.79.38,80.34,1c2,.34,3.79,1.56,5.68,2.35a12.4,12.4,0,0,0,2.16.77c1.35.29,2.71.47,4.28.73A6.46,6.46,0,0,1,96.74,0h3.14c2.95,1.4,5.21,3.41,5.76,6.38,2.14.11,4.09-.11,5.86.36a6.42,6.42,0,0,1,4.79,5.64,2.26,2.26,0,0,0,.88,1.44c2.33,1.42,3.8,3.37,3.52,6.14-.29,3-2.16,4.79-5,5.6-.22.06-.42.17-1,.39,1.19.32,2.07.56,3,.79s1.77.43,2.61.63l2.88-10.7a15.43,15.43,0,0,1,.15,1.74c-.14,4.65-.54,9.3-.38,13.94.12,3.39,1,6.76,1.51,10.14,0,.17.1.34.13.51.59,3,.44,3.13-2.41,4.16-1.2.43-2.19,1.48-3.4,1.89a13.59,13.59,0,0,1-4.45.79,60.54,60.54,0,0,1-6.23-.67,22.93,22.93,0,0,0-6.34.57,36.66,36.66,0,0,1-9.89.12,47.7,47.7,0,0,0-12.67-.26,69,69,0,0,1-19.64,0c-5.75-.79-11.49-.2-17.22.48a60.55,60.55,0,0,1-8.52.34c-3.78-.09-7.55-.57-11.33-.61a88.67,88.67,0,0,0-11.13.46c-3.52.41-5.92-1.62-8.49-3.28-1.33-.86-1.4-2.51-1.26-4a160,160,0,0,0,.65-23.18,4.28,4.28,0,0,1,2.92-4.62,22.85,22.85,0,0,1,3.19-1.39,27.8,27.8,0,0,1,6.09-.89c2.72,0,5.44.49,8.17.68a7.65,7.65,0,0,0,3.09-.24c2.39-.89,3.93.23,5.7,2.1-2.86-.21-5.37-.56-7.89-.53a99.26,99.26,0,0,0-12.32.64,12.68,12.68,0,0,0-5.39,2.72,4,4,0,0,0-1.11,3.1,78.73,78.73,0,0,1-.56,20.17,3.83,3.83,0,0,0,2,4.3,12.59,12.59,0,0,0,7.23,2,86.45,86.45,0,0,1,15.47.82c3,.5,6.17-.21,9.61-.39-2.1-2.2-2.08-2.22,1-3.56-1.35-.92-2.88-2-4.5-3a10.73,10.73,0,0,0-2-.49c-1.92-.66-3.83-1.38-5.74-2.08a14.64,14.64,0,0,0,1.61.51c2.26.44,4.79,1.69,6.73,1.08A39.36,39.36,0,0,1,47,39c2.71,0,5.42,0,8.13,0a9.61,9.61,0,0,1-1.81-.15c-4.8-.77-9.62-1.48-14.41-2.35a23.66,23.66,0,0,0-10.8.87,1.15,1.15,0,0,0-.85,1.79c-1.45-.79-.72-1.62.18-2A31.25,31.25,0,0,1,32.11,36c.93-.2,1.89-.24,3-.36-1.6-1.3-4.45-1-4.45-3.92-3.2-1-6.72-1.91-10.16-3.1-1-.34-1.74-1.35-2.6-2.05,1.06-.45,2.09-1.23,3.17-1.29,3-.18,6-.06,8.92-.06,0-.29,0-.86,0-1.43a16,16,0,0,0,3,2.46A74.59,74.59,0,0,0,57.48,33a15.58,15.58,0,0,0,2.94-.23l.14-.64a18.34,18.34,0,0,0-3.32-2c-5.64-1.93-11.27-3.92-17-5.51C36.91,23.72,33.44,23,29.92,23.81Zm66.15-3.92c.71.58,1.38,1.19,2.12,1.72,2.07,1.47,4.29,2.35,6.85,1.4,1.09-.41,1.84-1,1.47-2.48a11.67,11.67,0,0,1,.11-3.09,3.11,3.11,0,0,0-.09-1.47c-1.66-3-4.11-5-7.68-5.23A4,4,0,0,0,94.51,16a28.16,28.16,0,0,0,1.61,4c-.32-.29-.79-.52-.93-.88A1.68,1.68,0,0,0,92.74,18C94,21.26,94,21.26,93,23l6.34.43Zm17.41-6.4c-3.64,0-6.57,2.58-6.58,5.82s3.06,6,6.66,6,6.54-2.59,6.55-5.85S117.2,13.51,113.47,13.49Zm-36-4.62c-2.08.1-2.73,1-1.95,2.84a7.7,7.7,0,0,0,1,1.8,25.57,25.57,0,0,0,12.71,8.7c1.23.38,3,1,3.61-.45.39-.85-.24-2.49-.9-3.42a24.89,24.89,0,0,0-11.2-8.5A30.4,30.4,0,0,0,77.45,8.86Zm-16.31.84c-.24.1-1.15.21-1.28.59a2.77,2.77,0,0,0,.37,1.91A7,7,0,0,0,61.66,14a37.15,37.15,0,0,0,14.78,8.63,12.22,12.22,0,0,0,3.09.41c1.17,0,1.38-.7,1-1.63a4.77,4.77,0,0,0-.93-1.46,35.64,35.64,0,0,0-16.86-10A11.87,11.87,0,0,0,61.14,9.71Zm9.39,15.57.34-.8a22.83,22.83,0,0,0-2.52-2.72,47.62,47.62,0,0,0-18.29-9,12.06,12.06,0,0,0-3.49.19,11.74,11.74,0,0,0,1.91,2.88A47,47,0,0,0,67.06,25,19.74,19.74,0,0,0,70.53,25.28ZM64.34,42.64a20.05,20.05,0,0,0-3-1.33,55.92,55.92,0,0,0-22.47-1,20.51,20.51,0,0,0-3.43,1.18C38.82,45.49,60.51,46.32,64.34,42.64ZM35,16.5l-.22.74a25,25,0,0,0,2.88,2.33,65,65,0,0,0,22.24,8.21,17.31,17.31,0,0,0,2.93,0l.2-.67a19.06,19.06,0,0,0-2.29-2,64.23,64.23,0,0,0-22.8-8.65A17.11,17.11,0,0,0,35,16.5ZM62.41,37.44A21.3,21.3,0,0,0,59.74,36a70.25,70.25,0,0,0-26.51-4.19,11.58,11.58,0,0,0-2.32.62C34.86,36.39,56.95,39.94,62.41,37.44Zm34.37-27.2a35,35,0,0,0-3.5-3.77A6.79,6.79,0,0,0,86.8,4.89,3.56,3.56,0,0,0,84.17,8c-.19,1.54,0,2.81,1.57,3.84,2,1.29,3.74,3.09,5.65,4.58a11.44,11.44,0,0,0,2.31,1.09l.36-.41C93.49,14.39,93.78,12,96.78,10.25ZM64.86,18c-2.3-2.5-5.26-4.24-6.06-7.77,0-.21-.42-.39-.68-.52-3.18-1.53-6.35-3.1-9.57-4.53a7.22,7.22,0,0,0-2.9-.46c-1.24,0-1.72.79-1.08,1.87a13.9,13.9,0,0,0,6.36,5.75c4.13,1.82,8.32,3.51,12.5,5.24A12.72,12.72,0,0,0,64.86,18Zm12.89-1.36.24-.4a3.09,3.09,0,0,0-.25-.41c-1.6-1.89-3.56-3.6-3-6.51,0-.25-.37-.72-.68-.9-2.72-1.63-5.42-3.31-8.24-4.78a7.92,7.92,0,0,0-3.22-.52c-1.16-.05-1.8.67-1.49,1.79a7.57,7.57,0,0,0,3.9,5c3.75,1.93,7.45,4,11.17,5.93C76.7,16.13,77.23,16.38,77.75,16.63Zm24.18-6.1c.84-1,1.73-1.87,2.47-2.88A2.29,2.29,0,0,0,104.9,6,7.44,7.44,0,0,0,98.79.59a4.83,4.83,0,0,0-5.52,3.66,2.62,2.62,0,0,0,.58,1.84,35,35,0,0,0,2.83,3.25A2.59,2.59,0,0,0,98,10.1C99.31,10.31,100.63,10.39,101.93,10.53ZM20.55,17.64C22,19.53,28.63,23,31.18,23c6.25,0,12.16,1.63,18.07,3.36a12.52,12.52,0,0,0,1.33.24C47.38,24.92,44,23.78,41,22A36.17,36.17,0,0,0,28.84,18C26.19,17.51,23.52,16.84,20.55,17.64Zm33,2.8c-1.78-1.54-4.73-4.09-7.69-6.62a2.1,2.1,0,0,0-.78-.37c-4.12-1.18-8.23-2.4-12.38-3.48a12.09,12.09,0,0,0-3,0l-.22.58a12.12,12.12,0,0,0,1.63,1.64,27.66,27.66,0,0,0,9.56,4.36C45.55,17.63,50.28,19.42,53.53,20.44Zm-35,5.68-.17.82a24.36,24.36,0,0,0,3.33,1.62c4.64,1.46,9.27,2.8,14.28,2.58,3.63-.16,7.3.46,10.29.68C43,30.71,39,29.71,35.42,27.94c-4.05-2-8.26-2.13-12.54-2.27A31,31,0,0,0,18.49,26.12ZM103,10.31,108.07,15c1.42-1.81,4.23-2.52,7.4-2.07.14-3-1.84-5.31-5-6C106.93,6.29,104,7.85,103,10.31Zm-16.75-6C84.17,2.48,82,1.24,79.16,1.45c-1.5.11-2.91.79-3.13,2.29a15.42,15.42,0,0,0,.49,4.34c0,.13.35.26.55.31L83.53,10A5.25,5.25,0,0,1,86.27,4.32ZM85.21,42.26c-6.84-2.71-13.61-5.78-21.27-3.14.65,1.46,1.68,1.77,3.2,1.87a42.85,42.85,0,0,1,9.79,1.34C79.82,43.21,82.45,42.77,85.21,42.26ZM104.13,37a37.29,37.29,0,0,0-23.85-4.5C88.14,34.93,96,37.63,104.13,37Zm-8.28.32A36.15,36.15,0,0,0,115.11,43C109.37,38.54,105.71,37.45,95.85,37.28Zm-1.78,4.55c-8-4.24-15.76-5.72-19.92-3.93,2,.55,4,1,6,1.7s4,1.53,6,2.25A5.1,5.1,0,0,0,88,42.2C89.9,42.14,91.81,42,94.07,41.83ZM117,39c-5.82-4.29-14.41-6.82-21.08-6.28C104.92,36.94,109.07,38.19,117,39ZM67.24,33.21c4.23.9,8.61,2,13.06,2.72,3.17.5,6.43.45,9.64.64C82.84,32.87,72.54,31.59,67.24,33.21Zm36.51,8.66c-6.83-4.14-12.65-5.57-18.81-4.69,3.43,1.49,7,3,10.53,4.55a3.19,3.19,0,0,0,1.2.13ZM96.84,29.23c6.67,3.19,13.86,4.62,21.14,5.47C111.79,29.53,104.2,29.61,96.84,29.23ZM79.36,37.11l.11-1-17.77-3c.45,1.67-.48,3.4,1.54,3.49C68.62,36.87,74,37,79.36,37.11Zm-42,9.09C39.72,48.53,60,47.43,62.4,45a3.79,3.79,0,0,0-.88-.06A56.23,56.23,0,0,1,43,45C40.95,44.67,39.3,45.38,37.37,46.2Zm60.49-3.47c4.18,3.36,8.55,6,14.14,4.2C108.11,43,103.25,42,97.86,42.73ZM56.61,22c1.81,1.13,3.63,2.13,5.29,3.35a8.66,8.66,0,0,1,1.58,2.29c-.9.25-1.84.82-2.68.7-2.63-.38-5.23-1-7.84-1.54a12,12,0,0,0-1.45-.11c3.36,2,7.21,2.71,9.89,5.72,1.12-3.38,4.08-4.81,6.71-6.24Zm46.32,25c-4-3.39-8.47-5.68-14.13-4C93.21,45.43,97.23,49,102.93,47ZM89.27,31.64C82.13,28.73,75,28.71,67.83,30.08,74.78,32.15,82,31.8,89.27,31.64ZM86,47.53c-4.17-4.5-8.76-4-13.58-1.95C76.54,48.81,81.31,46.86,86,47.53Zm8.48-.36c-4.28-3.74-9.41-5.1-12.65-3.45C85.39,46.88,89.56,48.45,94.46,47.17ZM83,26c3.74.88,7,1.92,10.29,2.34,4.31.55,8.68.61,13,.87C102.3,26.94,93.31,25.66,83,26Zm-.15,3.1a59.07,59.07,0,0,0,19.92,3.29C97.83,29.62,91.19,28.5,82.84,29.06Zm6.34-.41,0-.48C83.65,26,71.9,25.26,69,27.37ZM73.6,47.35C69.28,45,65,42.66,62.48,38.53l-6.25.68a1.69,1.69,0,0,0,1,.59c1.85.46,3.73.81,5.53,1.42.73.24,1.68,1,1.79,1.59s-.9,1.23-1.6,2.11c.14.14.48.77.82.78C67.12,45.73,70.44,45.89,73.6,47.35Zm48-3.36c.16-2.27-.31-3.19-2.31-3.64-3.22-.73-6.48-1.26-9.72-1.87C113.54,40.41,116.51,44.44,121.6,44ZM87.94,23.82c2.92.57,5.46,1.12,8,1.55s5,.76,7.57,1.06,5,.5,7.57.75C105.1,24.64,95.84,23.34,87.94,23.82Zm33.35,16.54a14.07,14.07,0,0,1-.1-1.65c.17-2-.69-2.86-2.72-3.11-3-.37-6-1.08-9-1.64l0,.17ZM102.67,26.87c5.82,2.88,11.73,3.54,17.7,3.84C115,27.34,108.84,28.08,102.67,26.87ZM108,43.33c1.26.81,2.54,1.61,3.79,2.44,2.62,1.75,4.34,1.72,7.08-.24C115.61,42.92,111.62,43.87,108,43.33Zm-29.91.17a25.36,25.36,0,0,0-11.87-1.88c2.65,2.56,5.23,4.26,8.83,2.58A14.35,14.35,0,0,1,78.08,43.5ZM88.29,23.08c-3-2-6-3.93-9-5.85-.33-.21-.85-.13-1.6-.21,1.78,2.11,4,3.4,3.59,6.06Zm-11.39.71c-3.21-1.63-6.69-3.42-10.19-5.16a6.6,6.6,0,0,0-1.41-.35c2.23,2.27,5.09,3.58,6.18,6.7Zm16.35,1.71c-6.33-1.4-13-2.28-20.17,0ZM73.45,32l.06-.27c-2.82-.42-5.64-.9-8.47-1.25-1.92-.24-2.43.27-2.78,2.57Zm47.15,3.21.49-.28c-.48-1-.73-2.71-1.47-3A40.4,40.4,0,0,0,113,30.71l-.06.22ZM63.81,29.87l11.57-1.25c-2.07-.5-4.18-.57-6.19-1.05C66.86,27,65.63,28.44,63.81,29.87Zm-10.1,3.52,7.56,2.44L61,33.39Zm5.36,13.74L59,47.4h9.33v-.27ZM109.47,24.9l-2.38-2.51L104.68,24ZM62.81,37.1c.6,1.54,2.81,1.59,5.08.33Z"/><path class="cls-1" d="M0,29l.38-2.7A15.93,15.93,0,0,1,0,36.67Z"/><path class="cls-1" d="M104.78,72.29l.39-4.53c.52-.17,1-.1,1,1.07a29.94,29.94,0,0,0,.36,3.46Z"/><path class="cls-1" d="M121.49,57.66,112,56.17V55.3c3.09-1.57,6.53-1.12,10.12-1.52l-.6,1.43c-2.92-1-5.68-.34-8.46.11,3.08,1.19,6.55.81,9.51,2.61a15.17,15.17,0,0,1-10.13,1.62l9-1.44Z"/><path class="cls-1" d="M60.33,59.25l-.42-4.48,1.75-.17a26.16,26.16,0,0,1-.58,4.52c-.09.31-1.74.55-2.4.23-2.06-1-4-2.23-6.14-3.47l-.27,5.06-.64,0V53.85A13.2,13.2,0,0,1,54,54.94c1.47,1.12,2.82,2.39,4.28,3.51A8.85,8.85,0,0,0,60.33,59.25Z"/><path class="cls-1" d="M75.31,55.76,75,61.09C74,60,73.9,57.65,74.66,53.92A12.32,12.32,0,0,1,76.8,55c1.46,1.12,2.82,2.38,4.28,3.5a7.92,7.92,0,0,0,2,.73l-.36-4.41,1.44-.17c.12.29.25.45.24.6,0,.58-.1,1.15-.14,1.73-.23,3-.84,3.46-3.63,2.1A57,57,0,0,1,75.31,55.76Z"/><path class="cls-1" d="M30.55,57.47,26.89,60l-.39-.63,2.41-1.49c1.78-1.08,3.6-2.11,5.34-3.26,1.07-.71,1.8-.55,2.41.52.11.2.3.36.41.56a3.69,3.69,0,0,0,4.11,2.19l-1.83.45L40.18,60c-.24,0-.42.12-.45.08-1.8-2.4-4.29-1.68-6.66-1.47-1.09.1-2.13.11-2.54-1.2l6.33.53.1-.57L34.53,55.1Z"/><path class="cls-1" d="M12.28,53.89c-.92.45-1.88.85-2.76,1.38A10.66,10.66,0,0,0,8,56.58a7,7,0,0,0,1.5,1.49,8.73,8.73,0,0,0,8,.37,15.65,15.65,0,0,1,1.79-.54C16,60.65,9.84,60.7,7,58.26c-1.08-.93-1.08-2,.24-2.62a51.89,51.89,0,0,1,5.06-1.73Z"/><path class="cls-1" d="M74.65,66.27l-.14,1.86h4.07V66.25h1.48v4.19H78.64v-2H74.5l.18,2H73.18V66.27Z"/><path class="cls-1" d="M60.61,69.41,62,68.34l.11.13-.83,1.05,1.8.9-.09.34L57.67,69.4c0-.5,0-.93,0-1.35s.11-1.07.16-1.61a13.18,13.18,0,0,1,1.53,1.24A15.64,15.64,0,0,1,60.61,69.41Z"/><path class="cls-1" d="M62.1,51H46.56C51.74,50.45,56.91,49.82,62.1,51Z"/><path class="cls-1" d="M78.9,51.26a16.81,16.81,0,0,1,10.82,0Z"/><path class="cls-1" d="M14.87,51.24H27.41v.44H14.81Z"/><path class="cls-1" d="M5.45,68.37l2.11-.61L7.61,69l-2.06-.69v2.22H4V66.22h1.4Z"/><path class="cls-1" d="M26.77,11.72H17V11.3h9.78Z"/><path class="cls-1" d="M35.45,47.83H27V47.4L35.43,47Z"/><path class="cls-1" d="M122.63,15.36l-3.21-3,2.81-.17C122.31,13.37,123.7,14.35,122.63,15.36Z"/><path class="cls-1" d="M99.5,60.19l.38-6.35c.68-.23,1.14.29,1.07,1.27-.11,1.55-.36,3.09-.57,4.63a10,10,0,0,1-.29,1.13Z"/><path class="cls-1" d="M103.25,50.84h8.84v.27h-8.84Z"/><path class="cls-1" d="M13.58,70.47H12.47V66.23C13.57,66.17,13.57,66.17,13.58,70.47Z"/><path class="cls-1" d="M3,14.94c1.21-2.69,3.24-2.41,5.28-2.12Z"/><path class="cls-1" d="M12.29,53.91c1,0,2-.09,2.94-.11,1.26,0,1.58.83,1.5,1.83,0,.29-.58.71-.93.74s-1.08-.39-1.05-.5a8,8,0,0,1,.71-1.67l-3.18-.3Z"/><path class="cls-1" d="M124.11,33.1v-7h.33v7Z"/><path class="cls-1" d="M119.26,50.11l4.34-2.05.28.54-4.26,2.22Z"/><path class="cls-1" d="M93.78,70.48H92.64v-2.6C93.79,67.86,93.79,67.86,93.78,70.48Z"/><path class="cls-1" d="M7,51c-1.36,0-3.16.63-3.53-1.9Z"/><path class="cls-1" d="M88.58,70.44c-1.41,0-1.41,0-1.1-2.84a5.85,5.85,0,0,1,.81,1.21A8.5,8.5,0,0,1,88.58,70.44Z"/><path class="cls-1" d="M37.62,67.85c-.64,1.08-.78,2,.76,2.56l-.51.43A7.39,7.39,0,0,1,36,69.27c-.14-.22.74-1.07,1.16-1.64Z"/><path class="cls-1" d="M108.67,70.84l.3-3.08c.33.32,1.36,1,1.27,1.29C110,69.73,109.24,70.24,108.67,70.84Z"/><path class="cls-1" d="M115.15,67.92c-.58,1-.78,2,.81,2.46l-.46.43a6.6,6.6,0,0,1-1.91-1.47c-.16-.26.67-1.13,1.06-1.72Z"/><path class="cls-1" d="M122.07,67.9c2.2-.06.67,1.69,1.14,2.51C121.28,70.41,122.9,68.5,122.07,67.9Z"/><path class="cls-1" d="M44.54,67.85c1.2.06,1.2.06,1.11,2.63h-1Z"/><path class="cls-1" d="M100.82,70.47H99.63L99.4,67.7C101.28,67.89,100.28,69.49,100.82,70.47Z"/><path class="cls-1" d="M97.24,68.09v2.37l-1.06.05L96,67.67Z"/><path class="cls-1" d="M27.7,70.59,25.9,67.7c.62.11,1.26,0,1.4.27a18,18,0,0,1,1.08,2.42Z"/><path class="cls-1" d="M21.53,70.85V67.61c.51.5,1.36,1,1.37,1.43S22.14,70.1,21.53,70.85Z"/></g></g></svg>