<svg xmlns="http://www.w3.org/2000/svg" viewBox="0 0 167.6 83.75"><defs><style>.cls-1{fill:#fff;}</style></defs><title>Asset 7@1x</title><g id="Layer_2" data-name="Layer 2"><g id="Layer_1-2" data-name="Layer 1"><path class="cls-1" d="M46.49,25.23A108.57,108.57,0,0,0,61,28.61c.68.1,1.5,0,2,.61,1.5,1.93,3.66,3.09,5.45,4.68a12.24,12.24,0,0,0,6.41,3.26,15,15,0,0,0,7.21-.68,26.18,26.18,0,0,1,10.41-1.71c.29,0,.74.14.78-.33s-.42-.36-.72-.42c-3.75-.76-7.58-1.16-11.24-2.34a8.64,8.64,0,0,0-4-.27c-2.06.31-4.1.7-6.16,1a6.2,6.2,0,0,1-4-.35,12.66,12.66,0,0,1-3.35-3,1.43,1.43,0,0,1,.88,0,23.55,23.55,0,0,0,8-.58,57,57,0,0,0,8.34-3.24,4.29,4.29,0,0,1,1.29-.41,12.19,12.19,0,0,1,8,1.9A17.62,17.62,0,0,0,93,28.17c3.06,1.3,6.22,1.19,9.4.69s6-1.59,9-2.34c.27-.07.65-.15.55-.55s-.41-.29-.71-.2a14.07,14.07,0,0,1-4.37.24,34.16,34.16,0,0,1-10.31-2.39,12.17,12.17,0,0,0-9-.08,7.28,7.28,0,0,1-4,.42,30.78,30.78,0,0,0,3.94-2.42A29,29,0,0,1,94.41,18c2.95-1.24,5.91,1.14,6.8,3.67a3.56,3.56,0,0,0,2.86,2.58,2.35,2.35,0,0,0,2.59-1.87,2.08,2.08,0,0,0-2-2.2,7.17,7.17,0,0,0-2-.05,1.69,1.69,0,0,1-1.62-.44,10.73,10.73,0,0,0-3.31-2.71,29.88,29.88,0,0,1,7.85-1.08,3.64,3.64,0,0,1,2.52.91c2.16,2,4.77,2.31,7.54,2.16a40.53,40.53,0,0,1,7.1.34c2.42.3,4.81.77,7.19,1.27.27.06.64.24.76-.14s-.32-.5-.6-.57a14.5,14.5,0,0,1-2.84-1c-2-1-4-2.08-6.08-3.09a16.17,16.17,0,0,0-13.57-.81,8.05,8.05,0,0,1-3.17.29c1.11-1,2.37-1.52,3.11-2.62a2.31,2.31,0,0,1,2.26-1,10.21,10.21,0,0,0,4.12-.56,2.13,2.13,0,0,0,1.6-2.26,2.21,2.21,0,0,0-2.28-1.86,4,4,0,0,0-3.63,1.94,17.27,17.27,0,0,1-2.74,3.39c-1.38,1.35-2.65,3-4.78,3.23-1.32.16-2.62.44-3.92.74a40,40,0,0,0-6.38,2.14,3,3,0,0,1,1.5-1.07c1.71-.72,3.33-1.63,5-2.5a8,8,0,0,0,3-2.74c.46-.71.87-1.45,1.29-2.18,1.76-3.06,2.86-6.5,5.26-9.19.15-.17.29-.41,0-.57s-.49.07-.66.26a41.35,41.35,0,0,1-6.44,5.51c-3.88,2.82-7.2,6.08-8.79,10.77A2.7,2.7,0,0,1,91,17.79a43.23,43.23,0,0,1-6.35,4.68,44.68,44.68,0,0,1-7,3.12,16.42,16.42,0,0,0,3.05-4.49,3.52,3.52,0,0,1,4.07-2.4,4.16,4.16,0,0,0,3.75-1.19c.76-.85,1.49-1.72,2.21-2.6A1.57,1.57,0,0,0,91,13a3.85,3.85,0,0,1-.28-.93c-.37-1.5-.49-1.57-2-1.72-1.09-.11-2.27,0-3-1.17a1.54,1.54,0,0,0-1.32-.52.89.89,0,0,1-.85-.38c-.52-1-1.27-.84-2.08-.47-.2.09-.39.36-.61.22-.92-.58-2-.11-3-.66a1.21,1.21,0,0,0-1.29.21,1.18,1.18,0,0,1-.6.27c-1.23.11-1.48.4-1.51,1.64a12.39,12.39,0,0,0,0,1.56c.31,2.88,1.29,5.37,4,6.88a4.67,4.67,0,0,1,1.31,1.15,1.48,1.48,0,0,1,.3,1.64c-1.52,3.18-3.65,5.76-7.16,6.85a10.53,10.53,0,0,1-4.19.6c1.32-1.72,2.45-3.47,4.45-4.36a3.19,3.19,0,0,0,1-.89c1.14-1.34,1-3.72-.21-4.58a3.65,3.65,0,0,0-4,.27c-1,.76-1.18,1.82-.41,3.25,1.28,2.39.7,3.7-1.25,5.68a2.4,2.4,0,0,1-2.29.73c-1.15-.2-2.33-.17-3.49-.31a73.37,73.37,0,0,1-8.42-1.5,14.4,14.4,0,0,1,5-3.18A10.6,10.6,0,0,0,65.57,16c.39-1.41.84-2.8,1.33-4.18a7.9,7.9,0,0,1,3.26-4.37c.23-.14.67-.22.53-.57s-.6-.28-.94-.16A11.44,11.44,0,0,0,67,8.21c-4.83,3.34-7.84,8.06-10,13.37a8.17,8.17,0,0,1-3.26,4.11A2.14,2.14,0,0,1,51.9,26c-1.72-.48-3.46-.9-5.19-1.35-.3-.08-.7-.35-.85.08S46.21,25.15,46.49,25.23ZM70,33.14c.08-.21.39-.09.6-.06,2-.07,4-.64,6-.89a11.23,11.23,0,0,1,5,.29c1.59.53,3.22.87,4.85,1.26-5.35.22-10.7,1.14-16-.33h0C70.26,33.37,70,33.3,70,33.14Zm14.63,1.44h0c.38-.29.79-.14,1.22-.13a.6.6,0,0,1-.64.35,63.55,63.55,0,0,1-6.17,1.7A11.62,11.62,0,0,1,69.75,34C74.68,35.35,79.67,34.83,84.65,34.58ZM91,26.24c-.35-.24-.73-.43-1.09-.64h0c-.18,0-.48-.19-.43-.26.18-.24.41-.11.61.06,3.07.51,6.1,1.29,9.2,1.68a53,53,0,0,0,5.81.37C100.3,28.79,95.53,29.26,91,26.24ZM95.35,24A62.64,62.64,0,0,0,103,26.22h0c.43-.09.78.2,1.18.29a8.89,8.89,0,0,1-3.15-.07A65.08,65.08,0,0,1,91.82,25l-3.95-.7A10,10,0,0,1,95.35,24Zm8.1-2.29c-.37-.24-.83-.35-1.09-.86a6.37,6.37,0,0,1,2.41.1,1.31,1.31,0,0,1,1.11,1.29c0,.76-.56,1.13-1.25,1.27a2.13,2.13,0,0,1-2.32-1.3c.32-.18.54.12.82.16s.55.2.69-.1S103.67,21.81,103.45,21.67Zm5.13-6.43c0-.15.18-.15.31-.15,5.58-1.52,10.33.1,14.14,2.53-2.41-.48-4.59-1-6.78-1.34a57.92,57.92,0,0,0-6.76-.84.13.13,0,0,0-.06-.06l.06.06-.67,0C108.68,15.46,108.55,15.39,108.58,15.24Zm13.54,3h0l.83.18a1,1,0,0,1-1,0c-2.85-.29-5.71-.22-8.57-.23a7,7,0,0,1-5.1-2.22A75.14,75.14,0,0,1,122.12,18.25ZM111.35,9.85c.33-.21,1.05-.27.84-.72s-.79,0-1.19.11-.66.41-1.16.32a4.76,4.76,0,0,1,2.65-2,1.84,1.84,0,0,1,2.22,1.09c.2.76-.28,1.38-1.32,1.73a9.92,9.92,0,0,1-3.87.45A9.46,9.46,0,0,1,111.35,9.85Zm-17,5.91c3.18-3.19,6.19-6.43,9.07-9.79C101.76,10.41,99.52,14.35,94.39,15.76Zm8.39-10.51A94.44,94.44,0,0,1,93,16.05C94.63,10.77,98.88,8.17,102.78,5.25Zm-20,12.23c0-.39.27-.47.59-.49C83.33,17.33,83,17.31,82.82,17.48Zm3,.57h0c-.27.19-.61.32-.8,0-.09-.14.23-.23.43-.22a12.69,12.69,0,0,0,2.8-1.27A2.88,2.88,0,0,1,85.83,18Zm4.39-3.5c-.38.4-.74.82-1.11,1.23a1.85,1.85,0,0,1-.29.21c-.69-1.12-1.05.07-1.48.26a7,7,0,0,1-2.78,1A7.84,7.84,0,0,0,88,13.25a1,1,0,0,1,.09-.17c.29-.46,1.28-.41,2,.19A.79.79,0,0,1,90.22,14.54Zm-2.94-3.76a8.75,8.75,0,0,1,2.18.42.36.36,0,0,1,.26.37c0,.17-.16.2-.28.17a7.21,7.21,0,0,0-3.34.08C86.2,11,86.55,10.67,87.28,10.78Zm.43,1.5a7,7,0,0,1-1.28,2.35c-.33-.17.09-.57-.29-.66s-.44.21-.57.42A6.86,6.86,0,0,1,82,16.78c.92-1.75,3.06-2.6,3.45-4.85C86.15,13.18,86.94,12,87.71,12.28ZM81,9.45c-.08-.61.42-.81.81-1.07s.8-.06,1.13.23a7.68,7.68,0,0,1,.59.63h0a9.14,9.14,0,0,1,1.44.23c.66.21.88.73.67,1.62-.27-1.29-1.75-.66-2.1-1.69-.17.09-.17.26-.2.41s-.12.38-.37.36-.23-.26-.24-.44.14-.65-.32-.67-.33.36-.36.58a.59.59,0,0,1-.73.58C80.78,10.16,81,9.74,81,9.45Zm-2.51,6.2c-.29-.69-.57-1.38-.88-2.06-.09-.19-.19-.47-.49-.32s-.13.32-.08.52a17.6,17.6,0,0,0,1.36,3.15,4.11,4.11,0,0,1-1.68-1.49,10.51,10.51,0,0,1-1.61-5.64c0-.36-.07-.83.42-1s.58.25.71.57a.55.55,0,0,0,.48.29c1.44.24,1.89.72,1.93,2.15,0,1.2,0,2.41,0,3.61h0a1,1,0,0,1,.22.73C78.53,16.12,78.51,15.86,78.44,15.65Zm.28-6.87c-.36-.11-.3.4-.39.8-.25-.63-.57-.83-1.06-.77-.23,0-.58.13-.57-.29a.46.46,0,0,1,.5-.49c1,0,1.93.48,2.94.51.32,0,.26.53.26.86s-.29.33-.54.37a6.58,6.58,0,0,0-.75.2C78.8,9.62,79.28,8.95,78.72,8.78Zm1.41,5.3c0,.9,0,1.8,0,2.7,0,.61-.21.29-.35,0a7.89,7.89,0,0,1-.57-4.09,4.85,4.85,0,0,0,0-1.35.74.74,0,0,1,.35-.84.58.58,0,0,1,.78.19,1,1,0,0,0,1.46.23,1,1,0,0,1,1,0,1.32,1.32,0,0,0,.95.06c.88-.22,1.21.1,1,1a3.22,3.22,0,0,1-.76,1.45A23.66,23.66,0,0,1,81.46,16c.41-1,.74-1.8,1.06-2.6.08-.19.27-.45,0-.6s-.44.14-.55.37a14.1,14.1,0,0,1-1.19,2.22c0-.59,0-1.18,0-1.76,0-.23.16-.6-.2-.65s-.35.36-.39.63,0,.32,0,.49h0Zm-9.88,7.71c-.63-1.41-.49-2.22.48-2.81a2.6,2.6,0,0,1,3.08.15,2.74,2.74,0,0,1-.13,3.33,2.51,2.51,0,0,1-.5.46c-.59.39-1.2.75-2,1.22.14-.84.26-1.51.35-2.17,0-.21.08-.52-.23-.55s-.34.23-.39.47-.13.5-.23.84C70.54,22.36,70.38,22.08,70.25,21.79Zm-3.83-11c.11,0,.17.06.12.17a1.22,1.22,0,0,1-.19.3s-.13-.07-.19-.1C66.19,11,66.26,10.87,66.42,10.83ZM58.76,22.7a.69.69,0,0,1-.72.07c3.55-3.11,5.78-7.1,7.93-11.15C65,16.22,63.84,20.78,58.76,22.7Zm6.82-12.29c-2.07,4.28-4.17,8.54-8,11.58C59.58,17.68,61.68,13.42,65.57,10.41Z"/><path class="cls-1" d="M33.9,50c-.53-.4-.72.17-1,.47C26.77,58.09,18.65,61.3,9,60.73a6.41,6.41,0,0,1-6.26-5.66,13.22,13.22,0,0,1,.85-5.45A35.74,35.74,0,0,1,12,36.09a34.22,34.22,0,0,1,11.91-8.64,9.55,9.55,0,0,1,4.55-.86A2.72,2.72,0,0,1,31.16,29a5.93,5.93,0,0,1-.61,3.5C27.7,38,23.12,41,17.1,42.06a9,9,0,0,0-2.11.34,1,1,0,0,0-.67,1.17c.09.55.6.54,1,.51a9.56,9.56,0,0,0,1.54-.23A27.2,27.2,0,0,0,31,35.37a9.32,9.32,0,0,0,2.17-3.88,4.63,4.63,0,0,0-3.43-6.1A10.79,10.79,0,0,0,26.69,25a18.71,18.71,0,0,0-7.36,1.66A32.9,32.9,0,0,0,6,37.8c-3.15,4.33-5.6,9-6,14.47a8.8,8.8,0,0,0,5.5,9.09,16.93,16.93,0,0,0,9.3.77A28.51,28.51,0,0,0,33.76,51C34,50.71,34.4,50.33,33.9,50Z"/><path class="cls-1" d="M66,50.39c-.23-.19-.45-.07-.62.06a2.44,2.44,0,0,0-.44.51A34.73,34.73,0,0,1,58,57.63a7.67,7.67,0,0,1-1.68,1A1.56,1.56,0,0,1,54,57.12a10.33,10.33,0,0,1,.31-3,19.46,19.46,0,0,1,2.92-6.44c.53-.8.43-1.12-.42-1.48s-1.91-.59-2.68.46a14.93,14.93,0,0,1-1.23,1.24,86.45,86.45,0,0,1-9.13,8.78,10,10,0,0,1-3,1.83c-1,.35-1.62,0-1.82-1.09a4.53,4.53,0,0,1,.69-3.07A21.59,21.59,0,0,1,50,44.79c2.37-1.07,4.83-1.87,7.22.11a1.36,1.36,0,0,0-.41-1.56,3.62,3.62,0,0,0-2-1.13,10.41,10.41,0,0,0-6.52,1.06,32.23,32.23,0,0,0-8.1,5.54,14.21,14.21,0,0,0-3.34,4.4,4.22,4.22,0,0,0,1.57,5.62,4.76,4.76,0,0,0,5.57-.1,26.21,26.21,0,0,0,5.37-4.64c.71-.77,1.41-1.56,2.18-2.4.26.51,0,.83-.05,1.15a12.13,12.13,0,0,0-.42,4.91,2.92,2.92,0,0,0,3.11,2.62,7.7,7.7,0,0,0,4.5-1.66,34.47,34.47,0,0,0,6.93-7A4.21,4.21,0,0,0,66,51C66.13,50.8,66.19,50.57,66,50.39Z"/><path class="cls-1" d="M95.51,50.36c-.45-.35-.7,0-.93.37A30.67,30.67,0,0,1,89.52,56a17.81,17.81,0,0,1-3.47,2.51c-1.35.68-2.3.17-2.52-1.32a5.82,5.82,0,0,1,0-1.94,28,28,0,0,1,3.09-7.54,9.94,9.94,0,0,0,1.19-3.28c.19-1.46-.45-2.08-1.91-1.81a7.33,7.33,0,0,0-3.26,1.68,56.78,56.78,0,0,0-6.1,5.88l-3.66,4L72.71,54c.52-1.36,1-2.72,1.56-4.07.68-1.72,1.41-3.42,2.08-5.14.19-.49.49-1.06-.19-1.46A2,2,0,0,0,73,44.61c-.22.85-.46,1.69-.75,2.52q-2.22,6.24-4.42,12.48c-.09.26-.33.56-.1.82s.6.13.92,0A6.63,6.63,0,0,0,72,58.22c2.11-2.73,4.11-5.54,6.35-8.15a16.07,16.07,0,0,1,4.48-3.85c.32-.17.71-.49,1.07-.13s0,.75-.13,1.07c-.77,1.5-1.54,3-2.2,4.56a13.33,13.33,0,0,0-1.23,5.67,2.8,2.8,0,0,0,2.36,2.8,6,6,0,0,0,4.75-.93,28.67,28.67,0,0,0,7.92-8C95.56,51,95.93,50.68,95.51,50.36Z"/><path class="cls-1" d="M125,50.34c-.47-.33-.7.12-.92.42a31.68,31.68,0,0,1-5.37,5.5,16.18,16.18,0,0,1-3.09,2.21c-1.38.69-2.25.24-2.54-1.25a7.61,7.61,0,0,1,.52-3.91,43.22,43.22,0,0,1,2.78-6,9.68,9.68,0,0,0,1-2.93c.2-1.33-.47-2-1.78-1.79a7.52,7.52,0,0,0-3.52,1.79,54.69,54.69,0,0,0-5.28,5.05c-1.52,1.59-3,3.23-4.48,4.85l-.16-.11c.49-1.3,1-2.6,1.48-3.89.73-1.84,1.51-3.66,2.24-5.5.2-.49.5-1.06-.2-1.46a2,2,0,0,0-3.08,1.21c-.55,2.11-1.36,4.13-2.07,6.18-1,3-2.11,6-3.19,9-.23.63-.11,1,.6.82a5.8,5.8,0,0,0,3.16-1.79c2-2.61,4-5.2,6.05-7.77a17.69,17.69,0,0,1,5.15-4.71c.34-.19.77-.55,1.15-.14s0,.75-.14,1.08a51.22,51.22,0,0,0-2.39,5,13,13,0,0,0-1,5.12,2.8,2.8,0,0,0,2.49,2.89,6,6,0,0,0,4.56-.92,28.69,28.69,0,0,0,7.94-7.95C125.06,51.06,125.48,50.69,125,50.34Z"/><path class="cls-1" d="M165.84,38.13a6.87,6.87,0,0,0-2.79-.3,17,17,0,0,0-8.94,3.78A6.35,6.35,0,0,0,151.54,45a19.34,19.34,0,0,1-3.21,6.3c-.21.3-.62.66-.19,1s.76,0,1-.41l2.39-3.57a6.8,6.8,0,0,0,2.82,2.43,19.11,19.11,0,0,1,1.7,1c2,1.29,2.28,2.41,1.15,4.51a5.75,5.75,0,0,1-.47.74,12.74,12.74,0,0,1-5.51,4.21,6.79,6.79,0,0,1-1.51.37,1.13,1.13,0,0,1-1.15-.59.92.92,0,0,1,.18-1.08,3.77,3.77,0,0,1,1.58-1.41c.21-.08.43-.25.27-.52s-.35-.13-.53-.05A6.55,6.55,0,0,0,147,60.11a1.59,1.59,0,0,0,1.27,2.59,7.15,7.15,0,0,0,2.13-.17c3.47-.71,6.7-1.9,9.05-4.73,2.1-2.52,1.78-4.36-1-6-1.2-.71-2.45-1.35-3.66-2.05-1.85-1.07-2.06-2.15-.81-3.91A12.81,12.81,0,0,1,158.19,42a14.44,14.44,0,0,1,6.48-2.21c1.24,0,1.66.54,1.28,1.72a3.46,3.46,0,0,1-.81,1.32c-.23.24-.49.55-.24.85s.65,0,.92-.19a4.18,4.18,0,0,0,1.63-2.24A2.33,2.33,0,0,0,165.84,38.13Z"/><path class="cls-1" d="M143.81,50.4c-.52-.35-.81.33-1.09.69a35,35,0,0,1-7.31,6.84c-.78.54-1.62,1.28-2.66.65s-.87-1.79-.79-2.82a6,6,0,0,1,.3-1.23,27.58,27.58,0,0,1,1.57-3.88c.89-1.88,1.81-3.74,2.7-5.62.43-.91.28-1.62-.49-1.88-1.09-.38-1.93-.34-2.42.68a9,9,0,0,0-.78,1.67,12.5,12.5,0,0,1-2.61,4.61l-1.91,2.46a5.1,5.1,0,0,0-.45.63c-.16.3-.26.66,0,.89s.6,0,.81-.28c.42-.48.83-1,1.24-1.46-.32,1.71-1,3.22-1,4.92A3,3,0,0,0,132,60.37a7.83,7.83,0,0,0,4.85-1.79,31.48,31.48,0,0,0,6.64-7C143.77,51.28,144.4,50.8,143.81,50.4Z"/><path class="cls-1" d="M85.6,80.07a1.57,1.57,0,0,1-.4-2.54,4.7,4.7,0,0,0,.54-1.65c.07-.27.31-.68-.23-.76s-.83-.14-1,.5A13.69,13.69,0,0,1,84,77.47c-.13.39-.31.54-.65.12-.63-.77-1.3-1.51-2-2.28a10.08,10.08,0,0,0,1.53-1.13,2.38,2.38,0,0,0,.39-2.62A2.23,2.23,0,0,0,81,70.45a2.47,2.47,0,0,0-1.86,3.8c.35.64.26.87-.29,1.28a2.88,2.88,0,0,0-1.08,3.28,2.79,2.79,0,0,0,2.84,1.94A3.86,3.86,0,0,0,83.15,80c.31-.24.57-.31.8.06.5.78,1.23.61,2.08.57A2.94,2.94,0,0,0,85.6,80.07Zm-4.38-8.71a1.09,1.09,0,0,1,1.09,1.07c0,.81-1,2.12-1.5,2-.69-.23-.8-.95-.83-1.59A1.3,1.3,0,0,1,81.22,71.36Zm1.33,7.8a2.65,2.65,0,0,1-1.63.56A1.9,1.9,0,0,1,79,78.39,2.17,2.17,0,0,1,79.78,76c.26-.19.42-.21.64,0,.72.83,1.45,1.65,2.2,2.46C82.87,78.81,82.81,79,82.56,79.17Z"/><path class="cls-1" d="M121.71,75.94a2.39,2.39,0,0,0-1.56-2.38,2.52,2.52,0,0,0-2.9.83,2.11,2.11,0,0,1-.28.23c-1.25-1.58-2.54-1.66-4.18-.23-.2-.44-.18-1-.87-.87-.36.07-.5.2-.5.56,0,2,0,4,0,5.95,0,.5.14.68.66.69s.71-.21.7-.74c0-1.2,0-2.41,0-3.61a1.9,1.9,0,0,1,1.74-1.9c.85,0,1.36.74,1.37,1.92s0,2.41,0,3.61c0,.57.2.71.74.72s.63-.25.62-.71c0-1.11,0-2.21,0-3.32a3.31,3.31,0,0,1,.13-1,1.51,1.51,0,0,1,1.68-1.17c.82.07,1.14.67,1.28,1.39a6.32,6.32,0,0,1,.06,1.17c0,1,0,2.08,0,3.12,0,.53.26.57.67.57s.69-.06.68-.58C121.71,78.8,121.78,77.37,121.71,75.94Z"/><path class="cls-1" d="M32.91,70a3.47,3.47,0,0,0-5.11,2.3c-.08.45-.1.9-.77.86-.36,0-.33.32-.34.58s.08.47.38.45c.74-.07.65.43.64.89,0,1.49,0,3-.05,4.48,0,.53.06.84.72.86S29,80,29,79.55c0-1.43,0-2.86,0-4.29,0-.79.17-1.11,1-1,.63.06.94-.41.67-.86s-.58-.17-.89-.23-.76.16-.73-.37A2,2,0,0,1,29.82,71a1.83,1.83,0,0,1,1.77-.2c.59.23.31.8.31,1.2,0,2.47.08,4.94-.07,7.4,0,.48-.12,1,.68,1s.74-.4.74-.93c0-1.43,0-2.86,0-4.29h0c0-1.49,0-3,0-4.48A.68.68,0,0,0,32.91,70Z"/><path class="cls-1" d="M55.28,73.28c-.55,0-.79.14-.93.7-.41,1.62-.91,3.21-1.39,4.89-.5-1.65-1-3.2-1.44-4.75-.13-.41-.12-.88-.8-.88s-.71.4-.85.83c-.5,1.56-1,3.12-1.58,4.85-.41-1.63-.82-3.06-1.11-4.51-.19-.94-.55-1.41-1.68-1.06.63,2.13,1.26,4.24,1.88,6.35.12.42.21.76.8.77s.78-.31.93-.77c.49-1.51,1-3,1.54-4.66.53,1.7,1,3.27,1.5,4.85.11.37.25.65.72.6s.69.07.85-.42c.65-2.07,1.34-4.13,2-6.2C55.86,73.46,55.73,73.31,55.28,73.28Z"/><path class="cls-1" d="M130.19,73.7a3.06,3.06,0,0,0-3.68,1c-.08-.61,0-1.14-.77-1s-.45.67-.46,1c0,2.76,0,5.53,0,8.29,0,.45-.06.82.6.83s.79-.23.76-.81c0-.91,0-1.83,0-2.9a3.14,3.14,0,0,0,2.58.9c1.86-.26,3-1.78,2.9-4A3.32,3.32,0,0,0,130.19,73.7Zm.29,4.82a2,2,0,0,1-3.87-.66c0-.19,0-.39,0-.59a3.35,3.35,0,0,1,.19-1.44,1.92,1.92,0,0,1,1.8-1.27,1.86,1.86,0,0,1,1.84,1.2A3.45,3.45,0,0,1,130.49,78.52Z"/><path class="cls-1" d="M99.29,75.65a2.46,2.46,0,0,0-3.95-1.86c-.21.14-.4.31-.73.55,0-1.25,0-2.35,0-3.46,0-.49,0-.78-.66-.76s-.73.14-.72.71c0,3,0,6,0,9.06,0,.48,0,.78.66.79s.73-.29.72-.83c0-1.23,0-2.47,0-3.7a1.79,1.79,0,0,1,1.79-1.71c.89,0,1.44.57,1.56,1.65a9.43,9.43,0,0,1,0,1.07c0,1,0,1.95-.05,2.92,0,.57.27.62.72.62s.68,0,.67-.56C99.31,78.64,99.39,77.14,99.29,75.65Z"/><path class="cls-1" d="M39.82,73.07a3.5,3.5,0,0,0-3.55,3.79,3.46,3.46,0,0,0,3.49,3.75,3.54,3.54,0,0,0,3.54-3.83C43.3,74.51,41.93,73.06,39.82,73.07Zm2,4.57a2.2,2.2,0,0,1-2,1.9,2.12,2.12,0,0,1-2-1.87,3.69,3.69,0,0,1-.11-1c0-1.54,1-2.65,2.17-2.63s2.08,1.14,2.09,2.87A4.65,4.65,0,0,1,41.83,77.64Z"/><path class="cls-1" d="M62.92,73.6a3.05,3.05,0,0,0-3.32,0A3.36,3.36,0,0,0,58,76.18,3.68,3.68,0,0,0,59.22,80c1.29,1,2.74.81,4.2.43.38-.1.39-.36.34-.68s-.31-.39-.64-.3a4.81,4.81,0,0,1-2,.12,2.1,2.1,0,0,1-1.7-1.42c-.28-.69-.14-1,.69-1,.55.05,1.1,0,1.66,0s1.3,0,1.95,0c.38,0,.65-.09.63-.52A3.43,3.43,0,0,0,62.92,73.6Zm0,2.33c-.11.57-.77.15-1.17.26a2.81,2.81,0,0,1-.68,0,6,6,0,0,1-.68,0c-.36,0-.9.2-1-.17s.19-.86.47-1.21a1.84,1.84,0,0,1,2.29-.42A1.51,1.51,0,0,1,62.93,75.92Z"/><path class="cls-1" d="M107.91,75.52a2.3,2.3,0,0,0-2.07-2.12,4.52,4.52,0,0,0-2.3.25c-.38.13-.74.25-.54.81s.58.2.85.12a3.21,3.21,0,0,1,1.82-.11,1.15,1.15,0,0,1,.9,1.24c0,.64-.62.43-1,.46a4.78,4.78,0,0,0-2.21.68,2.25,2.25,0,0,0-.93,2.56,2.1,2.1,0,0,0,2.16,1.48,3.36,3.36,0,0,0,2.1-.9c0,.72.46.78,1,.73.29,0,.41-.15.36-.44C107.74,78.7,108.14,77.1,107.91,75.52ZM106.69,78a1.86,1.86,0,0,1-1.79,1.91,1.17,1.17,0,0,1-1.17-1.36c.07-.92,1.1-1.52,2.41-1.42C106.67,77.14,106.73,77.23,106.69,78Z"/><path class="cls-1" d="M137.49,73.51a3.28,3.28,0,0,0-2.75,2.79,3.75,3.75,0,0,0,1.22,4,5.09,5.09,0,0,0,4.3.33c.32-.19.22-.42.17-.67s-.28-.4-.57-.29a4.21,4.21,0,0,1-1.92.18A2.18,2.18,0,0,1,136,78.24c-.09-.46,0-.75.54-.72s1.23,0,1.85,0,1.3,0,1.95,0A.53.53,0,0,0,141,77,3.09,3.09,0,0,0,137.49,73.51Zm1.43,3.06c-.35,0-.71,0-1.07,0s-.59,0-.88,0-.73.17-.9-.14.1-.75.31-1.06a1.73,1.73,0,0,1,1.82-.86,1.66,1.66,0,0,1,1.35,1.24C139.79,76.38,139.61,76.63,138.92,76.56Z"/><path class="cls-1" d="M146.86,73.56a2.66,2.66,0,0,0-1.67,1.34c0-.71.15-1.32-.73-1.23s-.43.69-.44,1c0,1.82,0,3.64,0,5.46,0,.44,0,.74.6.72s.77-.08.75-.69c0-1.14,0-2.28,0-3.41a1.79,1.79,0,0,1,1.75-1.95c.62-.1.5-.52.5-.86C147.63,73.43,147.23,73.49,146.86,73.56Z"/><path class="cls-1" d="M70.15,73.25c-.57,0-.91.46-1.3.8-.06.17-.15.45-.31.38s-.07-.38-.06-.59h0c0-.63-.45-.51-.82-.5s-.37.36-.37.64c0,2,0,3.9,0,5.86,0,.49.08.7.62.69s.77-.1.74-.69c0-1.07,0-2.15,0-3.22a1.93,1.93,0,0,1,1.72-2.13c.61-.09.54-.42.54-.8C70.91,73.1,70.48,73.24,70.15,73.25Z"/><path class="cls-1" d="M135.94,39.86c.32.06.64.07,1.11.12s.63-.28.91-.62a7.15,7.15,0,0,0,1.44-3.46c.05-.28.28-.61,0-.81s-.53.11-.75.28c-1.08.84-2.15,1.68-3.21,2.54-.35.29-.94.49-.72,1.12S135.42,39.77,135.94,39.86Z"/><path class="cls-1" d="M68.85,74l-.37-.21C68.57,74,68.55,74.29,68.85,74Z"/><path class="cls-1" d="M68.54,74.43c.16.07.24-.21.31-.38-.3.24-.28-.07-.37-.21h0C68.47,74,68.35,74.34,68.54,74.43Z"/><path class="cls-1" d="M101,26.45a8.89,8.89,0,0,0,3.15.07c-.4-.1-.75-.38-1.18-.29h0C102.4,26.8,101.69,26.4,101,26.45Z"/><path class="cls-1" d="M101,26.45c.66,0,1.37.36,2-.22h0C102.38,26.67,101.67,26.25,101,26.45Z"/><path class="cls-1" d="M80.06,16.25c0,.2.16.53-.26.55.14.26.33.58.35,0,0-.9,0-1.8,0-2.7h0A19.82,19.82,0,0,0,80.06,16.25Z"/><path class="cls-1" d="M79.8,16.81c.42,0,.25-.35.26-.55a19.82,19.82,0,0,1,.07-2.17C79.7,14.95,80.23,15.94,79.8,16.81Z"/><path class="cls-1" d="M85.23,34.79a.6.6,0,0,0,.64-.35c-.43,0-.85-.16-1.22.13C84.88,34.56,85.19,34.3,85.23,34.79Z"/><path class="cls-1" d="M85.23,34.79c0-.49-.35-.23-.58-.21h0C84.84,34.65,85.11,34.52,85.23,34.79Z"/><path class="cls-1" d="M85.46,17.83c-.2,0-.52.08-.43.22.2.32.53.18.8,0C85.63,18.11,85.42,18.18,85.46,17.83Z"/><path class="cls-1" d="M85.46,17.83c0,.35.17.28.37.22h0C85.69,18,85.52,18,85.46,17.83Z"/><path class="cls-1" d="M82.82,17.48c.18-.17.51-.15.59-.49C83.08,17,82.85,17.09,82.82,17.48Z"/><path class="cls-1" d="M108.82,15.46l.67,0-.06-.06c-.18-.09-.58.19-.53-.29-.13,0-.28,0-.31.15S108.68,15.46,108.82,15.46Z"/><path class="cls-1" d="M109.43,15.38c-.17-.11-.45,0-.53-.29C108.85,15.57,109.25,15.29,109.43,15.38Z"/><path class="cls-1" d="M66.55,11c.05-.11,0-.2-.12-.17s-.23.18-.26.38c.06,0,.18.11.19.1A1.22,1.22,0,0,0,66.55,11Z"/><path class="cls-1" d="M90.14,25.4c-.19-.17-.43-.3-.61-.06-.05.07.25.22.43.26h0C89.89,25.42,89.94,25.35,90.14,25.4Z"/><path class="cls-1" d="M90,25.6l.18-.2C89.94,25.35,89.89,25.42,90,25.6Z"/><path class="cls-1" d="M70.45,33.39h0c-.16-.22.05-.25.17-.32-.21,0-.52-.14-.6.06S70.26,33.37,70.45,33.39Z"/><path class="cls-1" d="M70.45,33.39l.17-.32C70.5,33.15,70.3,33.17,70.45,33.39Z"/></g></g></svg>