<svg xmlns="http://www.w3.org/2000/svg" viewBox="0 0 55.46 55.46"><defs><style>.cls-1{fill:#2f6045;}.cls-2{fill:#fff;}</style></defs><title>Asset 8@1x</title><g id="Layer_2" data-name="Layer 2"><g id="Layer_1-2" data-name="Layer 1"><rect class="cls-1" width="55.46" height="55.46" rx="9.48" ry="9.48"/><path class="cls-2" d="M27.73,49a21.14,21.14,0,0,1-10.59-2.85L8.86,49l1.7-8.76A21,21,0,0,1,6.49,27.73,21.23,21.23,0,1,1,27.73,49ZM17.52,42.64l.64.4a18.1,18.1,0,1,0-4.67-4.2l.44.57L13,44.19Z"/><path class="cls-2" d="M17,19.57s1.25-2.18,2.26-2.3,2.32-.12,2.68.54,1.93,4.52,1.93,4.52a1.52,1.52,0,0,1-.15,1.31,12.88,12.88,0,0,1-1.35,1.58,1.15,1.15,0,0,0,0,1.37,25,25,0,0,0,3,3.66,16.28,16.28,0,0,0,4.85,2.85,1,1,0,0,0,.75-.23c.29-.29,1.87-2.26,1.87-2.26a1.11,1.11,0,0,1,1.35-.27c.84.38,4.48,2.2,4.48,2.2a.79.79,0,0,1,.43.8,5.13,5.13,0,0,1-.79,2.75,6.33,6.33,0,0,1-4.42,2.17c-2.34,0-7.9-1.9-10.87-4.87s-5.6-6-6.22-8.71S16.24,20.7,17,19.57Z"/></g></g></svg>